<?xml version="1.0" encoding="UTF-8" standalone="no"?>
<!-- Created with Inkscape (http://www.inkscape.org/) -->

<svg
   width="420mm"
   height="297mm"
   viewBox="0 0 420 297"
   version="1.1"
   id="svg5"
   inkscape:version="1.2.2 (732a01da63, 2022-12-09)"
   sodipodi:docname="novi logo finish a3.svg"
   xml:space="preserve"
   xmlns:inkscape="http://www.inkscape.org/namespaces/inkscape"
   xmlns:sodipodi="http://sodipodi.sourceforge.net/DTD/sodipodi-0.dtd"
   xmlns:xlink="http://www.w3.org/1999/xlink"
   xmlns="http://www.w3.org/2000/svg"
   xmlns:svg="http://www.w3.org/2000/svg"><sodipodi:namedview
     id="namedview7"
     pagecolor="#ffffff"
     bordercolor="#000000"
     borderopacity="0.25"
     inkscape:showpageshadow="2"
     inkscape:pageopacity="0.0"
     inkscape:pagecheckerboard="0"
     inkscape:deskcolor="#d1d1d1"
     inkscape:document-units="mm"
     showgrid="false"
     inkscape:zoom="0.37282197"
     inkscape:cx="607.52857"
     inkscape:cy="343.32741"
     inkscape:window-width="1920"
     inkscape:window-height="1017"
     inkscape:window-x="-8"
     inkscape:window-y="-8"
     inkscape:window-maximized="1"
     inkscape:current-layer="layer1" /><defs
     id="defs2"><rect
       x="-64.373886"
       y="709.45392"
       width="1239.1974"
       height="171.66371"
       id="rect14560" /><linearGradient
       id="linearGradient11044"
       inkscape:swatch="solid"><stop
         style="stop-color:#000000;stop-opacity:1;"
         offset="0"
         id="stop11042" /></linearGradient><rect
       x="30.845821"
       y="79.126236"
       width="1052.7812"
       height="480.12192"
       id="rect6370" /><rect
       x="95.219711"
       y="92.537468"
       width="468.05182"
       height="126.06553"
       id="rect6251" /></defs><g
     inkscape:label="Layer 1"
     inkscape:groupmode="layer"
     id="layer1"><path
       style="fill:#ff0000;stroke:#000000;stroke-width:1;stroke-dasharray:none"
       id="path6534"
       sodipodi:type="arc"
       sodipodi:cx="-65.290314"
       sodipodi:cy="75.935478"
       sodipodi:rx="56.419353"
       sodipodi:ry="57.483868"
       sodipodi:start="3.1255182"
       sodipodi:end="3.1253611"
       sodipodi:open="true"
       sodipodi:arc-type="arc"
       d="M -121.70238,76.85946 A 56.419353,57.483868 0 0 1 -66.199401,18.459073 56.419353,57.483868 0 0 1 -8.8783205,75.006981 56.419353,57.483868 0 0 1 -64.376796,133.41181 56.419353,57.483868 0 0 1 -121.70224,76.86849" /><path
       style="fill:#ff0000;stroke:#000000;stroke-width:0.00969857;stroke-dasharray:none"
       id="path10995"
       sodipodi:type="arc"
       sodipodi:cx="-72.741951"
       sodipodi:cy="-157.00046"
       sodipodi:rx="69.621613"
       sodipodi:ry="52.693703"
       sodipodi:start="3.1255182"
       sodipodi:end="3.1253611"
       sodipodi:open="true"
       sodipodi:arc-type="arc"
       d="m -142.35457,-156.15347 a 69.621613,52.693703 0 0 1 68.490804,-53.53385 69.621613,52.693703 0 0 1 70.7343449,51.83574 69.621613,52.693703 0 0 1 -68.4852469,53.53792 69.621613,52.693703 0 0 1 -70.739722,-51.83153"
       transform="scale(1,-1)" /><g
       id="g20674"
       transform="matrix(1.5765503,0,0,1.5765503,-19.502709,-17.675227)"><path
         style="fill:#8b4513;stroke:#000000;stroke-width:4"
         id="path304"
         sodipodi:type="arc"
         sodipodi:cx="145.83871"
         sodipodi:cy="105.74194"
         sodipodi:rx="91.548386"
         sodipodi:ry="91.548386"
         sodipodi:start="3.1255182"
         sodipodi:end="3.1253611"
         sodipodi:open="true"
         sodipodi:arc-type="arc"
         d="m 54.302156,107.21347 a 91.548386,91.548386 0 0 1 90.061434,-93.008027 91.548386,91.548386 0 0 1 93.01157,90.057787 91.548386,91.548386 0 0 1 -90.05413,93.0151 91.548386,91.548386 0 0 1 -93.018641,-90.05048" /><path
         style="fill:#ffff00;stroke:#000000;stroke-width:4;stroke-dasharray:none"
         id="path3255"
         sodipodi:type="arc"
         sodipodi:cx="146.54839"
         sodipodi:cy="106.80646"
         sodipodi:rx="60.03418"
         sodipodi:ry="60.03418"
         sodipodi:start="3.1255182"
         sodipodi:end="3.1253611"
         sodipodi:open="true"
         sodipodi:arc-type="arc"
         d="m 86.521962,107.77143 a 60.03418,60.03418 0 0 1 59.059088,-60.991358 60.03418,60.03418 0 0 1 60.99368,59.056698 60.03418,60.03418 0 0 1 -59.0543,60.996 60.03418,60.03418 0 0 1 -60.998316,-59.05191" /><path
         style="fill:#000000;stroke-width:0.11569"
         d="m 171.95258,149.80192 c -2.74156,-0.38563 -5.61323,-1.16814 -8.83089,-2.40641 -3.48458,-1.34097 -4.70221,-1.88075 -5.92686,-2.62742 -0.9649,-0.58832 -1.21002,-0.68959 -1.59842,-0.66045 -0.4454,0.0334 -0.46495,0.053 -0.67164,0.675 -0.11711,0.35233 -0.36661,0.8271 -0.55451,1.05505 -0.56638,0.6871 -0.9211,0.78877 -3.03408,0.86947 -1.86659,0.0713 -1.88332,0.0698 -1.68445,-0.15486 0.15496,-0.17501 0.1695,-0.25825 0.0636,-0.36413 -0.25402,-0.25401 -0.7851,-0.0807 -0.7851,0.2561 0,0.0642 0.0617,0.0541 0.13875,-0.0231 0.16188,-0.16188 0.43963,-0.18502 0.43963,-0.0367 0,0.2262 -0.52163,0.22736 -0.88632,0.001 -0.8335,-0.51513 -1.55711,-1.8068 -1.78367,-3.18392 -0.25338,-1.54002 0.2486,-3.1838 1.17784,-3.85693 0.4433,-0.32111 1.08119,-0.50704 2.67344,-0.77924 l 0.54501,-0.0931 -2.5567,-3.06578 c -6.90109,-8.27522 -15.61186,-19.07947 -22.01257,-27.30287 -1.26292,-1.62255 -2.31176,-2.96904 -2.33076,-2.99221 -0.019,-0.0231 -0.22066,0.0729 -0.44814,0.21351 -0.51763,0.31991 -3.67772,1.21833 -4.86733,1.38379 -1.05269,0.14642 -1.57838,0.0417 -2.39429,-0.47704 -0.67369,-0.42828 -1.60928,-1.43648 -2.06397,-2.22415 -0.77203,-1.33736 -1.17653,-3.40616 -0.92956,-4.754181 0.28793,-1.571689 1.11723,-2.526274 2.7318,-3.144557 0.44542,-0.170563 0.85426,-0.347722 0.90854,-0.393688 0.0543,-0.04597 -0.10547,-0.387969 -0.35497,-0.760007 -1.40677,-2.09752 -2.81422,-5.379883 -3.55701,-8.295398 -1.23848,-4.861083 -1.21262,-9.239634 0.0763,-12.909465 0.46768,-1.331646 1.56862,-3.582784 2.23806,-4.576315 2.9169,-4.328917 7.54929,-7.148141 12.44403,-7.573303 1.76548,-0.153354 3.96161,0.115912 5.3212,0.652411 0.33594,0.132572 0.40715,0.2144 0.3674,0.422263 -0.0309,0.161482 0.0405,0.339134 0.19114,0.475409 0.1998,0.180816 0.28923,0.195351 0.52919,0.08601 0.15882,-0.07236 0.28875,-0.185619 0.28875,-0.251686 0,-0.159792 0.99649,0.348825 2.14027,1.092406 2.20976,1.436586 4.13888,3.379471 5.69216,5.732779 0.88391,1.339179 1.3167,2.18186 2.40638,4.685448 1.77286,4.073235 3.12763,6.600169 6.32661,11.800388 1.22995,1.999386 4.00051,7.431516 13.96966,27.389786 5.5359,11.08289 10.21084,20.58136 10.42004,21.17129 0.82059,2.31392 1.24587,2.9508 3.54241,5.30478 2.53287,2.59626 3.31332,3.89002 3.30417,5.47735 -0.003,0.55255 -0.0871,0.90713 -0.35385,1.49543 -0.41791,0.92172 -0.80256,1.48785 -0.94928,1.39717 -0.0588,-0.0364 -0.10679,0.0147 -0.10679,0.11239 0,0.23984 -0.97899,0.72163 -2.06459,1.01605 -1.18227,0.32063 -5.3338,0.40185 -7.19061,0.14067 z m 6.2208,-0.75208 c 1.13429,-0.19845 2.12668,-0.59718 2.59639,-1.04319 0.37769,-0.35865 0.438,-0.4861 0.43793,-0.92551 -2.4e-4,-1.06991 -1.24674,-2.89238 -3.311,-4.84074 -0.92378,-0.87191 -1.76465,-1.7784 -2.18479,-2.35526 l -0.23078,-0.31687 v 1.5349 c 0,1.33902 -0.0362,1.63547 -0.28421,2.3229 -0.32302,0.89564 -0.9137,1.65577 -1.46597,1.88652 -0.55841,0.23331 -3.72627,0.23539 -4.17617,0.003 -0.46804,-0.24204 -1.00527,-0.81718 -1.32334,-1.41675 -0.14836,-0.27969 -0.33073,-0.50853 -0.40523,-0.50853 -0.65598,0 -10.15684,0.59322 -10.20053,0.63691 -0.0823,0.0823 -0.0592,0.0968 1.01444,0.63399 1.36678,0.68387 6.15501,2.5624 7.81718,3.06685 2.12974,0.64638 4.91683,1.27106 4.91683,1.10203 0,-0.0427 -0.35086,-0.4902 -0.77968,-0.99444 l -0.77967,-0.91679 1.15145,1.0618 1.15145,1.06182 0.98759,0.0722 c 0.54316,0.0396 1.09169,0.0919 1.21896,0.11623 0.38319,0.0729 3.13884,-0.0564 3.84915,-0.1807 z m 0.0265,-2.00341 c -0.82237,-0.30714 -1.39672,-0.56286 -1.35589,-0.60369 0.0682,-0.0682 1.71306,0.49753 1.85267,0.63714 0.16557,0.16557 0.007,0.15494 -0.49678,-0.0334 z m -0.34707,-1.0689 c -0.92957,-0.30502 -2.09646,-0.76095 -2.05462,-0.80279 0.0903,-0.0903 2.67448,0.76411 2.85481,0.94383 0.0947,0.0944 -0.2883,0.027 -0.80019,-0.14097 z m -12.7418,-0.74429 c 0.40485,-0.19345 0.75826,-0.32955 0.78536,-0.30244 0.0607,0.0607 -0.8369,0.48533 -1.23223,0.58283 -0.15907,0.0392 0.042,-0.0869 0.44687,-0.28039 z m -1.00545,-0.21797 c 0.53451,-0.29341 1.59979,-0.71646 1.59979,-0.63533 0,0.0735 -1.34316,0.68428 -1.74174,0.79205 -0.18243,0.0494 -0.13198,-0.006 0.142,-0.15672 z m 0.02,-0.71318 c 0.24462,-0.12903 0.47387,-0.20551 0.50946,-0.16992 0.0357,0.0356 -0.12388,0.14347 -0.35428,0.23973 -0.59311,0.24782 -0.6817,0.20796 -0.15518,-0.0698 z m -13.40594,1.75314 c 0.21154,-0.23374 0.19865,-0.31914 -0.12285,-0.81414 -0.14421,-0.22206 -0.1283,-0.21459 0.0682,0.0323 0.3173,0.39826 0.8832,0.70944 0.98643,0.54241 0.0404,-0.0652 -0.0654,-0.35553 -0.23501,-0.64496 -0.16962,-0.28942 -0.28161,-0.55301 -0.24888,-0.58574 0.0327,-0.0327 0.13876,0.0938 0.23567,0.28113 0.39324,0.76045 1.18198,1.21317 1.74033,0.99892 0.27568,-0.10577 0.21969,-0.27686 -0.0906,-0.27686 -0.37967,0 -0.84425,-0.39528 -1.13457,-0.96537 l -0.24483,-0.48074 0.50836,0.54677 c 0.64888,0.69792 0.98778,0.78502 1.47131,0.37816 0.33773,-0.28417 0.71741,-1.13418 0.57172,-1.27987 -0.12654,-0.12654 -1.39961,0.1227 -1.45345,0.28454 -0.0398,0.11976 0.0265,0.14568 0.25953,0.1012 0.20014,-0.0383 0.27301,-0.0197 0.20198,0.0513 -0.40326,0.40324 -1.09651,-0.3919 -1.23789,-1.41981 -0.12682,-0.92249 0.27359,-1.95937 0.75677,-1.95937 0.10959,0 0.27074,0.091 0.35806,0.20247 0.14362,0.18315 0.13965,0.18744 -0.0421,0.0449 -0.22575,-0.17697 -0.60946,-0.0885 -0.48556,0.11195 0.0825,0.13361 1.25506,0.0941 1.39613,-0.047 0.24854,-0.24854 -0.76951,-1.46925 -1.22534,-1.46925 -0.3031,0 -0.87103,0.50295 -1.04663,0.92689 -0.0804,0.19421 -0.16746,0.33193 -0.19337,0.30602 -0.0259,-0.0259 0.0392,-0.26284 0.14465,-0.52649 0.20852,-0.52117 0.64851,-0.93779 0.99037,-0.93779 0.26317,0 0.28452,-0.18025 0.0328,-0.27685 -0.61695,-0.23675 -1.20548,0.13095 -1.63188,1.0197 -0.22976,0.47888 -0.26818,0.51802 -0.20769,0.21158 0.0408,-0.2068 0.0415,-0.37599 10e-4,-0.37599 -0.0399,0 -0.1508,0.16919 -0.24635,0.37599 l -0.17373,0.37599 0.065,-0.49168 c 0.0356,-0.27042 0.0358,-0.49168 1.2e-4,-0.49168 -0.0357,0 -0.16971,0.22126 -0.29783,0.49168 l -0.23296,0.49168 0.0744,-0.45577 c 0.0663,-0.40595 0.0545,-0.43922 -0.10798,-0.30441 -0.10031,0.0832 -0.243,0.35375 -0.31712,0.60113 -0.17534,0.58521 -0.25266,0.50224 -0.11269,-0.12094 0.14657,-0.65252 -0.0894,-0.57538 -0.35474,0.11593 -0.21053,0.54851 -0.27847,0.40558 -0.10119,-0.21278 0.0592,-0.20637 0.0651,-0.37523 0.0133,-0.37523 -0.0822,0 -0.25416,0.3105 -0.51271,0.92552 -0.0401,0.0954 -0.0498,-0.0216 -0.0214,-0.2603 0.0658,-0.55344 -0.10473,-0.56014 -0.30233,-0.0118 l -0.15209,0.42196 -0.0691,-0.3352 -0.0691,-0.3352 -0.17995,0.40492 c -0.42507,0.95652 -0.35456,2.49752 0.16324,3.56714 0.27678,0.57175 0.86343,1.29184 1.05244,1.29184 0.0669,0 0.0434,-0.0912 -0.0523,-0.20245 -0.0956,-0.11136 -0.21568,-0.28055 -0.26678,-0.37599 -0.0511,-0.0954 0.0919,0.0348 0.31791,0.28921 0.22596,0.25453 0.45042,0.42404 0.49881,0.37672 0.0483,-0.0473 0.009,-0.17749 -0.0866,-0.28923 -0.096,-0.11181 -0.21418,-0.28126 -0.26264,-0.3767 -0.14974,-0.29481 0.50884,0.50093 0.69418,0.83874 0.20909,0.38116 0.61744,0.42173 0.91668,0.091 z m -0.69658,-0.30696 c -0.51096,-0.63402 -0.60463,-0.86214 -0.13699,-0.33364 0.39128,0.44223 0.74841,0.51715 0.42688,0.0896 -0.0848,-0.11284 -0.0289,-0.0884 0.12447,0.0546 0.24971,0.23272 0.26042,0.27822 0.10252,0.43604 -0.15782,0.15784 -0.21176,0.13213 -0.51693,-0.24657 z m 31.19282,-0.80526 c -0.27358,-0.61848 -1.11375,-1.8261 -1.55728,-2.23834 -0.16597,-0.15425 -0.30175,-0.32682 -0.30175,-0.38346 0,-0.0567 -0.15633,-0.23453 -0.34739,-0.3953 -0.19106,-0.16077 -0.31814,-0.33961 -0.2824,-0.39744 0.0356,-0.0579 -0.0368,-0.10517 -0.16121,-0.10517 -0.30224,0 -1.87614,-1.68081 -2.57737,-2.75244 -0.30359,-0.46394 -0.71286,-1.27088 -0.90949,-1.7932 -0.6678,-1.77382 -0.96637,-2.42482 -2.91499,-6.35613 -1.07086,-2.16045 -1.91785,-3.9753 -1.88219,-4.03301 0.0357,-0.0577 0.0133,-0.10488 -0.0493,-0.10488 -0.0628,0 -2.68505,-5.16701 -5.82721,-11.48226 -5.5734,-11.2017 -11.03867,-21.991077 -12.78984,-25.249354 -0.47877,-0.890815 -1.45313,-2.556752 -2.16524,-3.702084 -2.3226,-3.735592 -3.79842,-6.552605 -5.55591,-10.605088 -0.97407,-2.24601 -1.39839,-3.071454 -2.22022,-4.318933 -2.1148,-3.210165 -4.81276,-5.529243 -8.22419,-7.069226 -1.25132,-0.564875 -1.24868,-0.806594 0.003,-0.275088 2.27351,0.9654 3.99364,2.148211 5.87524,4.039961 2.15313,2.16477 3.22738,3.864176 4.97749,7.874112 0.45821,1.049887 1.37661,2.985425 2.04087,4.301193 1.0667,2.112837 1.87028,3.510276 4.34967,7.56411 0.35263,0.576554 1.43099,2.554854 2.39635,4.396222 2.9838,5.691422 21.4814,42.855975 21.84864,43.897315 0.80044,2.26976 1.31167,3.05027 3.37201,5.14821 0.87484,0.89081 1.83956,1.93031 2.1438,2.31 0.56662,0.70711 1.21347,1.92696 1.21365,2.28869 5e-5,0.11136 0.0579,0.20245 0.1286,0.20245 0.18258,0 0.0321,-0.7331 -0.30197,-1.47139 -0.45903,-1.01431 -0.95342,-1.63727 -2.78298,-3.50672 -2.00511,-2.0488 -2.73177,-3.07008 -3.35386,-4.71361 -0.68867,-1.81938 -1.42322,-3.3288 -9.89367,-20.32985 -11.42554,-22.932139 -13.44116,-26.84592 -15.66982,-30.426498 -1.64708,-2.646216 -2.61474,-4.3751 -3.77741,-6.748898 -0.85552,-1.746701 -1.04724,-2.259918 -0.67795,-1.814964 0.0804,0.09698 0.22779,0.176331 0.32735,0.176331 0.1311,0 0.0903,-0.09464 -0.14749,-0.342886 -0.25696,-0.268205 -0.29969,-0.377617 -0.19618,-0.502329 0.18261,-0.220038 0.0399,-0.326897 -0.21995,-0.164645 -0.26333,0.164457 -0.42275,0.03438 -0.23504,-0.191791 0.094,-0.113172 0.0991,-0.189902 0.0165,-0.241003 -0.0667,-0.04123 -0.12123,-0.0094 -0.12123,0.07068 0,0.276151 -0.19353,-0.06982 -0.68864,-1.231057 -2.30716,-5.41119 -5.89725,-9.195252 -10.5333,-11.102397 -1.1475,-0.472058 -1.50396,-0.5141 -1.50396,-0.177385 0,0.127254 0.052,0.23138 0.11563,0.23138 0.0636,0 0.11563,0.05206 0.11563,0.115691 0,0.06363 -0.0781,0.115692 -0.17353,0.115692 -0.10592,0 -0.17354,0.107869 -0.17354,0.276684 0,0.206097 0.0812,0.29627 0.31814,0.353459 0.65379,0.157774 3.13286,1.477654 4.19281,2.232295 2.15189,1.532056 4.38258,4.033212 5.68146,6.370307 0.81447,1.465486 1.75336,3.595979 1.67486,3.800531 -0.0353,0.09208 -0.0183,0.13898 0.038,0.104216 0.0563,-0.03475 0.1308,0.0112 0.16571,0.102214 0.0349,0.09097 0.001,0.186324 -0.0747,0.211902 -0.10326,0.03479 -0.099,0.09398 0.0174,0.234965 0.0856,0.103657 0.13081,0.255285 0.10061,0.336961 -0.0336,0.09084 -0.10179,0.03621 -0.17547,-0.140718 -1.85068,-4.443088 -3.12854,-6.505284 -5.44837,-8.792446 -0.67765,-0.668111 -1.6994,-1.545214 -2.27055,-1.949116 -0.97439,-0.689061 -3.85525,-2.215727 -4.18113,-2.215727 -0.0813,0 -0.19675,0.169197 -0.25647,0.375993 l -0.10856,0.375992 -0.0242,-0.46276 c -0.0132,-0.254519 -0.0166,-0.505676 -0.007,-0.558127 0.009,-0.05246 -0.0373,-0.06213 -0.10297,-0.02151 -0.0657,0.04063 -0.54858,-0.01566 -1.07299,-0.12506 -1.88749,-0.393796 -4.45367,-0.19517 -6.36916,0.492983 -0.99132,0.356137 -2.49269,1.094998 -3.17079,1.560426 -0.43773,0.300443 -0.48226,0.37358 -0.431,0.707916 0.0527,0.343694 0.0465,0.352496 -0.0791,0.112554 -0.075,-0.143164 -0.1857,-0.260303 -0.24619,-0.260303 -0.17791,0 -1.85455,1.441738 -2.54926,2.192108 -1.85254,2.000966 -3.01718,3.99048 -3.70557,6.330104 -0.17351,0.58966 -0.17136,0.606826 0.16486,1.317772 0.18737,0.396183 0.50091,0.960302 0.69677,1.2536 l 0.3561,0.533268 -0.42564,-0.404914 c -0.2341,-0.222704 -0.51094,-0.548082 -0.6152,-0.723063 -0.10429,-0.174982 -0.22337,-0.318149 -0.26467,-0.318149 -0.0414,0 -0.16967,0.37744 -0.28524,0.838753 -0.16461,0.657047 -0.21186,1.318819 -0.21809,3.054717 -0.004,1.218779 0.0199,2.198736 0.0541,2.177681 0.0342,-0.02105 0.068,0.04901 0.0754,0.155686 0.0278,0.403286 0.63971,3.128158 0.92624,4.124949 0.45191,1.572082 1.1237,3.315877 1.88564,4.89466 0.72152,1.495046 1.88098,3.379658 2.07925,3.379658 0.0642,0 0.62064,-0.130893 1.23641,-0.29089 0.75545,-0.196279 1.25448,-0.266403 1.53435,-0.215605 0.94194,0.170971 1.92344,0.876704 2.84464,2.045385 l 0.34669,0.439837 0.57844,-0.190165 c 0.44502,-0.146301 0.7624,-0.381186 1.37584,-1.018285 0.43858,-0.455467 0.70381,-0.710986 0.58944,-0.567819 -0.28584,0.357809 -0.009,0.339304 0.35378,-0.02366 0.17139,-0.171388 0.28157,-0.41218 0.2779,-0.607373 l -0.006,-0.323406 -0.18158,0.260303 c -0.0999,0.143163 -0.21988,0.260303 -0.26669,0.260303 -0.1423,0 -2.07293,-2.383301 -2.19871,-2.714119 -0.14838,-0.390233 -0.15229,-1.45975 -0.007,-1.842568 0.0608,-0.160169 0.25779,-0.367271 0.43755,-0.460226 0.48563,-0.251126 8.28739,-2.502945 8.67184,-2.502945 0.18187,0 0.44311,0.07875 0.58052,0.174997 0.13743,0.09625 0.93241,1.319671 1.76664,2.718717 0.83425,1.399046 1.54877,2.54372 1.58785,2.54372 0.039,0 0.35239,-0.08869 0.69626,-0.197079 l 0.62521,-0.197077 -0.0744,-0.81521 c -0.0926,-1.014995 0.0969,-2.23113 0.45913,-2.94591 0.56736,-1.119662 1.87849,-1.925973 4.62253,-2.842747 2.263,-0.756063 3.13839,-0.689089 4.20194,0.321485 0.20584,0.195587 0.39993,0.329944 0.4313,0.29857 0.0314,-0.03138 -0.43866,-0.886814 -1.04452,-1.900979 -1.5028,-2.515516 -3.4504,-6.393448 -3.30126,-6.573169 0.0711,-0.08574 0.0736,-0.201383 0.007,-0.307164 -0.0869,-0.137537 -0.10827,-0.125855 -0.11254,0.06172 -0.004,0.204915 -0.0181,0.209389 -0.11755,0.03911 -0.0685,-0.117489 -0.0719,-0.297459 -0.009,-0.46276 l 0.10385,-0.270498 0.13066,0.333836 c 0.25492,0.651062 2.41563,4.889598 3.07351,6.029118 0.36736,0.636296 1.17213,1.963839 1.78839,2.950098 1.4124,2.26044 2.11233,3.553012 5.45028,10.065036 4.5809,8.936887 19.38549,38.767557 19.75333,39.802167 0.76201,2.14331 1.38064,3.17522 2.74679,4.58186 0.55608,0.57255 0.8237,0.93256 0.77929,1.04829 -0.0516,0.13449 -0.0118,0.1586 0.1673,0.10179 0.18915,-0.0601 0.40346,0.1121 1.09954,0.88326 1.07687,1.19294 1.68917,1.99556 1.9222,2.51962 0.15828,0.35594 0.18511,0.37399 0.22198,0.14921 0.023,-0.14068 -0.0653,-0.49811 -0.19635,-0.79436 z M 121.30935,92.406307 c -0.12521,-0.178646 -0.29462,-0.454961 -0.37653,-0.614034 l -0.14893,-0.289226 0.26006,0.231107 c 0.28244,0.251001 0.63345,0.856512 0.54674,0.943206 -0.0296,0.02956 -0.15617,-0.0924 -0.28134,-0.271053 z m 0.69404,-0.650906 c -0.30262,-0.444514 -0.33852,-0.634817 -0.0791,-0.419559 0.22191,0.18417 0.55321,0.803803 0.42918,0.802711 -0.0494,-4.82e-4 -0.20687,-0.172854 -0.35005,-0.383152 z m 0.77714,-0.721199 c -0.13964,-0.226051 -0.22798,-0.437036 -0.19616,-0.468853 0.082,-0.082 0.54699,0.531698 0.54699,0.72192 0,0.246069 -0.0764,0.19095 -0.35083,-0.253067 z m 0.94866,-0.478301 c -0.19957,-0.372913 -0.16405,-0.591843 0.0471,-0.290361 0.10016,0.14306 0.16098,0.323699 0.13507,0.401426 -0.0284,0.08526 -0.10075,0.04119 -0.18217,-0.111065 z m 13.18141,-2.411465 c -0.34331,-0.159809 -0.59394,-0.320808 -0.55699,-0.357775 0.0726,-0.07259 1.10383,0.409776 1.19646,0.559639 0.0798,0.129199 0.0546,0.12123 -0.63947,-0.201864 z m 0.37777,-0.799336 c -0.19917,-0.08667 -0.39617,-0.212697 -0.4378,-0.280059 -0.11269,-0.182379 0.58058,0.0786 0.7495,0.28214 0.1647,0.198455 0.14885,0.19835 -0.3117,-0.0021 z m 0.18856,-0.816727 c -0.18538,-0.10597 -0.22447,-0.166807 -0.10886,-0.169435 0.0991,-0.0022 0.28141,0.07234 0.40492,0.165757 0.2876,0.217523 0.0825,0.220074 -0.29603,0.0037 z m -15.91817,-1.735351 c 0.0166,-1.721863 0.039,-1.899482 0.32076,-2.545182 0.27948,-0.640393 0.29994,-0.797153 0.26437,-2.024576 l -0.0386,-1.330436 0.10679,1.365924 c 0.10473,1.338559 0.10061,1.380276 -0.20223,2.082422 -0.27301,0.632941 -0.31838,0.925616 -0.38903,2.509693 l -0.08,1.793197 z m 1.30335,-0.69414 c 0.0387,-0.509036 0.10635,-1.472156 0.15017,-2.140266 l 0.0797,-1.214746 0.0103,1.1569 c 0.006,0.636296 -0.0623,1.599415 -0.15017,2.140267 l -0.15978,0.983365 0.0706,-0.92552 z m 10.71134,-2.668916 c -0.43008,-0.418015 -0.72309,-0.743394 -0.65113,-0.723063 0.19572,0.0553 1.68981,1.483092 1.55196,1.483092 -0.0654,0 -0.47075,-0.342013 -0.90083,-0.760029 z m 0.8377,-0.58314 c -1.25452,-1.058574 -1.25907,-1.063287 -0.75948,-0.786166 0.36624,0.203148 1.9901,1.655137 1.85853,1.661817 -0.0318,0.0016 -0.52638,-0.392428 -1.09905,-0.875651 z m 1.04121,-0.414835 c -1.58507,-1.384365 -1.86761,-1.652855 -1.50398,-1.429136 0.60495,0.372171 1.72341,1.317103 2.05844,1.739034 0.17769,0.223794 0.30785,0.404758 0.28923,0.402146 -0.0186,-0.0027 -0.39829,-0.323033 -0.84369,-0.712044 z m 0.51584,-0.865568 c -0.45041,-0.424893 -0.87368,-0.880422 -0.9406,-1.012289 -0.0669,-0.131865 0.32664,0.20161 0.87459,0.741054 0.54797,0.539448 0.9963,0.994977 0.9963,1.012289 0,0.106971 -0.20137,-0.05343 -0.93029,-0.741054 z m 0.89757,-0.6068 c -0.26757,-0.249597 -0.45754,-0.482779 -0.42214,-0.518182 0.0353,-0.0354 0.29322,0.168814 0.57292,0.453813 0.62654,0.638391 0.51544,0.685815 -0.15078,0.06437 z m -5.90871,-6.574362 c -0.40293,-0.80433 -0.68196,-1.573428 -0.41682,-1.148881 0.20779,0.332713 0.92076,1.92979 0.8615,1.92979 -0.0295,0 -0.22951,-0.35141 -0.44468,-0.780909 z m 1.33929,-5.265317 c -0.48764,-1.194894 -0.62974,-1.725462 -0.49752,-1.857686 0.0896,-0.08952 0.12491,-0.05013 0.12491,0.138803 0,0.145078 0.15736,0.709622 0.34969,1.254541 0.3903,1.105769 0.40478,1.400162 0.0228,0.464348 z m 41.14963,77.495786 0.27865,-0.1544 -0.42875,-0.14156 c -0.43834,-0.14465 -0.89233,-0.69459 -1.0541,-1.27683 -0.0505,-0.18172 0.0523,-0.0843 0.27662,0.26217 0.65005,1.0041 1.27012,1.00669 1.76212,0.007 0.24548,-0.4986 0.27495,-0.71437 0.27375,-2.00486 -0.001,-1.53873 -0.12241,-2.14977 -0.55201,-2.78722 -0.477,-0.7078 -1.07692,-0.60509 -1.59379,0.27285 -0.37013,0.62867 -0.35603,0.34662 0.0199,-0.39867 0.14656,-0.2906 0.3438,-0.47236 0.62145,-0.57276 0.44309,-0.16022 0.50733,-0.26861 0.22372,-0.37745 -0.56933,-0.21846 -1.05907,0.10989 -1.53423,1.02884 -0.27933,0.54021 -0.32568,0.46412 -0.0782,-0.1283 0.24798,-0.59352 -0.0349,-0.44724 -0.37535,0.19408 l -0.27217,0.51269 0.0735,-0.46277 c 0.0947,-0.5955 -0.0944,-0.43243 -0.41364,0.35672 -0.19979,0.4939 -0.221,0.51548 -0.16103,0.16389 0.038,-0.2227 0.0947,-0.49602 0.12609,-0.60737 0.0314,-0.11136 0.004,-0.20245 -0.0585,-0.20245 -0.0635,0 -0.22046,0.2733 -0.34884,0.60736 -0.24158,0.62854 -0.32868,0.54883 -0.13567,-0.12418 0.16591,-0.57849 -0.12153,-0.40707 -0.36977,0.22047 l -0.2021,0.51104 0.0638,-0.57845 c 0.0545,-0.49443 0.0427,-0.54484 -0.081,-0.34707 -0.0797,0.12727 -0.2144,0.41359 -0.29948,0.6363 l -0.1547,0.40492 0.0713,-0.57846 c 0.0829,-0.67181 -0.0859,-0.6117 -0.36519,0.13007 l -0.16884,0.44833 0.0426,-0.3811 c 0.0601,-0.5386 -0.10311,-0.56935 -0.28559,-0.0538 -0.24148,0.68224 -0.20259,2.73597 0.0652,3.44284 0.29638,0.78231 0.79793,1.63428 0.85727,1.45622 0.0317,-0.0952 0.16244,-0.0352 0.38251,0.17567 0.39954,0.3828 0.4185,0.32264 0.0838,-0.26592 l -0.25044,-0.44045 0.43772,0.49722 c 0.48037,0.54564 0.65601,0.57712 0.34809,0.0623 -0.16654,-0.27842 -0.14215,-0.26678 0.16118,0.0767 0.36145,0.40942 0.51706,0.2703 0.1865,-0.16673 -0.0934,-0.12344 -0.16985,-0.27448 -0.16985,-0.3355 0,-0.061 0.16001,0.11004 0.35558,0.37994 0.40842,0.5638 0.56233,0.55739 0.27811,-0.0118 l -0.19319,-0.38675 0.37153,0.43979 c 0.3984,0.47162 0.56818,0.50261 0.33853,0.0619 l -0.14082,-0.27021 0.30493,0.28046 c 0.36539,0.33609 0.37312,0.30001 0.076,-0.3546 -0.33657,-0.74173 -0.28381,-0.93907 0.0644,-0.24052 0.29455,0.59107 0.86423,1.1862 1.12787,1.17823 0.0747,-0.001 0.26112,-0.0735 0.41439,-0.15851 z m -0.50271,-1.95024 c -0.26715,-0.40774 -0.4462,-1.44232 -0.36088,-2.08541 0.0723,-0.54471 0.34073,-1.23918 0.47904,-1.23918 0.0339,0 0.0286,0.0535 -0.0118,0.11887 -0.0404,0.0654 0.0429,0.21315 0.18511,0.32834 0.26625,0.21558 0.22547,0.47826 -0.0742,0.47826 -0.0916,0 -0.1667,0.0781 -0.1667,0.17352 0,0.10798 0.1093,0.17354 0.28922,0.17354 0.2121,0 0.28922,-0.0617 0.28922,-0.23138 0,-0.27602 0.40314,-0.32223 0.5046,-0.0579 0.0445,0.11592 -0.004,0.17353 -0.14861,0.17353 -0.26912,0 -0.39761,0.4539 -0.24334,0.85965 0.0622,0.16349 0.19239,0.29724 0.2894,0.29724 0.27605,0 0.20676,0.22558 -0.10576,0.34441 -0.1552,0.0589 -0.33924,0.2139 -0.40899,0.3442 -0.0697,0.13036 -0.20942,0.23692 -0.31042,0.23692 -0.1501,0 -0.15734,0.0317 -0.0396,0.17354 0.0793,0.0954 0.11284,0.17354 0.0747,0.17354 -0.0382,0 -0.14657,-0.11785 -0.24089,-0.26182 z m 0.71646,-0.80833 c -0.0546,-0.16634 -0.66594,-0.27075 -0.66594,-0.11371 0,0.17459 0.14068,0.25834 0.43384,0.25834 0.17187,0 0.26128,-0.0557 0.2321,-0.14465 z m -0.18455,-0.37534 c 0.0314,-0.0314 0.0342,-0.21366 0.006,-0.4049 -0.0404,-0.27512 -0.10871,-0.34774 -0.32713,-0.34774 -0.23842,0 -0.2761,0.0552 -0.2761,0.40492 0,0.34706 0.0386,0.40492 0.26994,0.40492 0.14847,0 0.29568,-0.0258 0.32713,-0.0572 z m 0.6338,-0.0231 c -0.11328,-0.11328 -0.0879,-0.84526 0.0293,-0.84526 0.21452,0 0.33853,0.73761 0.14421,0.85772 -0.0548,0.0339 -0.13287,0.0283 -0.17352,-0.0118 z m -21.07973,2.14973 c -0.0349,-0.0566 -0.19157,-0.10267 -0.34811,-0.10267 -0.2458,0 -0.2747,-0.0395 -0.212,-0.28923 0.0448,-0.1782 0.0234,-0.28921 -0.0557,-0.28921 -0.0706,0 -0.1283,0.12594 -0.1283,0.27976 0,0.48916 0.0999,0.60799 0.46602,0.55425 0.1878,-0.0275 0.31287,-0.0963 0.27795,-0.15284 z m 7.70139,-0.56608 c 7.82909,-0.43472 7.38608,-0.38894 7.31592,-0.75595 -0.0496,-0.26004 -0.10576,-0.28383 -0.64831,-0.27491 -0.32663,0.006 -0.90625,0.0501 -1.28803,0.0994 -0.50637,0.0654 -0.77864,0.0471 -1.00653,-0.0676 -0.40006,-0.20142 -0.48003,-0.19815 -0.39775,0.0162 0.0524,0.13655 -0.0327,0.17354 -0.39937,0.17354 -0.28117,0 -0.4376,0.0458 -0.39446,0.11563 0.10473,0.16949 -0.0132,0.14333 -0.52059,-0.11563 -0.50041,-0.25529 -0.62522,-0.28496 -0.52643,-0.12506 0.11165,0.18061 -0.48189,0.23912 -3.05481,0.30116 -1.93706,0.0467 -2.54047,0.0981 -2.74764,0.2338 -0.14597,0.0956 -0.26547,0.12064 -0.26547,0.0555 0,-0.0719 -0.46502,-0.12461 -1.18581,-0.13434 l -1.18583,-0.0161 1.34162,-0.1286 c 0.82474,-0.0791 1.4187,-0.19258 1.54171,-0.29469 0.1604,-0.13316 0.21827,-0.1367 0.29176,-0.0178 0.0732,0.11828 0.38101,0.12388 1.52407,0.0274 0.78783,-0.0664 1.91732,-0.15537 2.50999,-0.19754 0.85126,-0.0606 1.06462,-0.11048 1.0159,-0.2374 -0.0523,-0.1361 -0.001,-0.13566 0.3302,0.003 0.21552,0.09 0.40972,0.14583 0.43155,0.12403 0.0218,-0.0218 0.68983,-0.0704 1.48447,-0.10783 2.49718,-0.11784 3.00663,-0.18233 3.00663,-0.38095 0,-0.15666 -0.2839,-0.16778 -2.40739,-0.0943 l -2.40738,0.0832 0.0468,-0.40156 c 0.056,-0.47912 -0.27282,-1.28046 -0.80802,-1.96958 -0.87506,-1.12671 -1.54528,-1.82888 -2.13019,-2.23173 -0.34298,-0.23621 -0.62359,-0.44868 -0.62359,-0.47216 0,-0.12771 0.67162,0.35011 1.88308,1.33976 0.74936,0.61216 1.61905,1.32223 1.93266,1.57794 0.58644,0.47815 1.82394,1.16458 1.92228,1.06626 0.0303,-0.0303 -0.20721,-0.22372 -0.52802,-0.42958 -0.32082,-0.20587 -1.351,-1.04787 -2.28927,-1.8711 -0.93829,-0.82323 -1.96629,-1.67045 -2.28443,-1.88273 -1.93101,-1.28841 -3.64254,-0.84416 -3.64381,0.9458 -4.4e-4,0.67885 0.11548,0.77872 0.30907,0.26603 0.0709,-0.18774 0.30353,-0.45126 0.51703,-0.5856 0.80754,-0.50812 2.35674,0.006 3.29263,1.0913 0.70961,0.82341 1.04748,2.18 0.72125,2.89599 -0.18198,0.39938 -0.30654,0.37045 -0.35009,-0.0813 -0.0348,-0.36051 -0.0589,-0.37744 -0.58578,-0.41126 -0.30224,-0.0194 -0.54953,-0.0775 -0.54953,-0.12903 0,-0.0516 0.1093,-0.23273 0.24293,-0.40258 0.29452,-0.37443 0.41006,-1.10227 0.22875,-1.44105 -0.20814,-0.38894 -0.29811,-0.29431 -0.29857,0.31405 -2.3e-4,0.30876 -0.0632,0.68603 -0.13979,0.83839 -0.0766,0.15235 -0.15455,0.40663 -0.17311,0.56505 -0.0186,0.15843 -0.1118,0.29813 -0.20727,0.31044 -0.85287,0.11004 -1.04121,0.17648 -1.04121,0.36699 0,0.11166 0.0651,0.27185 0.14465,0.35599 0.28028,0.29652 -0.29674,-0.0703 -0.74594,-0.47408 -0.23528,-0.21154 -0.57557,-0.49648 -0.75616,-0.63323 -0.28708,-0.21734 -0.32256,-0.30951 -0.28216,-0.73309 0.0253,-0.26646 -0.0118,-0.54244 -0.0826,-0.61328 -0.0946,-0.0946 -0.12874,-0.0208 -0.12874,0.27825 0,0.69414 -0.31396,1.52902 -0.7199,1.9143 -0.56614,0.53738 -1.03287,0.72852 -2.1221,0.86913 -1.13244,0.14613 -1.26929,0.27357 -1.17666,1.09536 0.0857,0.76061 0.24358,0.88763 1.00609,0.80958 0.35251,-0.0361 3.53028,-0.22605 7.06173,-0.42214 z m -6.0795,-1.10327 c 0.8767,-0.22145 1.63226,-0.66378 1.93421,-1.1323 0.13007,-0.20178 0.20465,-0.27092 0.16579,-0.15367 -0.19276,0.58176 -0.18751,0.7242 0.0355,0.96358 l 0.23197,0.249 -0.54454,0.0641 c -0.29951,0.0352 -0.98708,0.0909 -1.52793,0.12359 l -0.98336,0.0595 z m 25.44813,-0.47034 c 0.24831,-0.0953 0.23292,-0.29537 -0.0194,-0.25299 -0.12742,0.0214 -0.19743,-0.0355 -0.18887,-0.15362 0.009,-0.12639 -0.0544,-0.16986 -0.19462,-0.13316 -0.16769,0.0439 -0.19494,0.003 -0.13994,-0.20646 0.0471,-0.18039 0.027,-0.23538 -0.0657,-0.17815 -0.19468,0.12035 -0.16396,0.53829 0.0576,0.78306 0.20835,0.23022 0.27494,0.24729 0.55106,0.14126 z m -24.77948,-1.19844 c 0.4824,-0.37945 0.58371,-0.79892 0.52445,-2.17109 -0.0296,-0.68512 -0.006,-1.52292 0.0521,-1.86176 l 0.10591,-0.61606 -0.62446,-0.83007 c -0.84188,-1.11906 -0.89445,-1.23572 -0.89445,-1.98461 0,-0.53008 0.0507,-0.69983 0.27629,-0.92545 0.32464,-0.32466 0.16089,-0.29159 4.29324,-0.86697 2.64332,-0.36803 3.29116,-0.42576 3.52214,-0.31383 0.19672,0.0953 0.86623,1.16028 2.19549,3.49219 1.88877,3.31347 1.91302,3.36481 1.95789,4.14685 0.0384,0.66944 0.007,0.84309 -0.19964,1.12333 l -0.24509,0.33148 0.45411,0.13611 c 0.61969,0.18566 0.77652,0.094 0.86657,-0.50653 0.11887,-0.79305 0.72128,-1.69889 1.34026,-2.01552 0.69904,-0.35757 2.12779,-0.62354 3.48813,-0.64933 0.99902,-0.019 1.15421,0.006 1.47505,0.2426 0.41999,0.30897 0.43053,0.26603 0.13832,-0.5638 -0.16672,-0.47338 -4.24925,-8.90595 -4.61559,-9.53362 -0.0371,-0.0636 0.0205,-0.0442 0.12815,0.043 0.23066,0.18708 0.24356,0.13065 0.0614,-0.26904 -0.15125,-0.33194 -0.35418,-0.40387 -0.26016,-0.0922 0.0336,0.11136 -3.13381,-6.17496 -7.03868,-13.96958 -7.55374,-15.078221 -11.22766,-22.277117 -11.51318,-22.559545 -0.15627,-0.154575 -0.16642,-0.148256 -0.0929,0.05785 0.31452,0.881741 0.44843,1.693689 0.49608,3.007943 0.0797,2.195226 -0.25635,3.45289 -1.15218,4.313014 -0.32576,0.312779 -0.72909,0.481044 -2.29265,0.956462 -2.28944,0.696136 -3.13528,0.862456 -3.84497,0.75603 -0.8946,-0.134193 -2.10865,-1.063017 -3.08963,-2.363863 -0.24781,-0.328615 -0.33576,-0.371844 -0.61427,-0.301887 -0.23835,0.05986 -0.30565,0.131851 -0.25231,0.269832 0.30352,0.785147 0.36102,2.08329 0.11342,2.561928 -0.18483,0.357459 -0.57105,0.501874 -4.04805,1.513726 -0.69992,0.20369 -1.45053,0.46469 -1.668,0.58 -0.21747,0.11534 -0.63396,0.24016 -0.92553,0.27746 -0.29155,0.0373 -0.80981,0.15016 -1.15167,0.25079 -0.90696,0.26698 -1.70108,0.0737 -2.26607,-0.55178 -0.3962,-0.43854 -0.46694,-0.46784 -1.54038,-0.63814 l -1.12511,-0.1785 -0.98336,0.33649 -0.98337,0.33649 -0.0284,0.51074 c -0.0432,0.77599 -0.26322,1.85734 -0.45232,2.22303 -0.16636,0.3217 -0.15458,0.34595 0.73171,1.50545 4.83119,6.32055 16.67396,21.03753 23.84991,29.63824 2.33706,2.80107 2.75655,3.25092 3.10072,3.32506 0.2189,0.0471 0.54655,0.16255 0.72809,0.25642 0.41767,0.21599 1.26581,1.17246 1.35509,1.52816 0.0828,0.32966 0.26722,0.34175 0.64771,0.0426 z m -4.25603,-4.25553 c -0.66098,-0.82635 -0.71748,-0.93384 -0.2755,-0.52407 0.36417,0.33763 0.88894,1.0736 0.7655,1.0736 -0.0277,0 -0.24825,-0.24729 -0.49,-0.54953 z m 0.69231,-0.2054 c -0.23597,-0.28794 -0.40191,-0.55066 -0.36878,-0.58378 0.0542,-0.0542 0.61674,0.60018 0.82755,0.96272 0.18034,0.31018 -0.0501,0.11991 -0.45877,-0.37894 z m 0.77255,-0.11681 c -0.19747,-0.22491 -0.35905,-0.44223 -0.35905,-0.48291 0,-0.11092 0.58322,0.45637 0.70884,0.6894 0.17009,0.31554 0.0424,0.24014 -0.34979,-0.20649 z m 0.69415,-0.23138 c -0.38231,-0.43541 -0.47624,-0.64216 -0.18012,-0.39641 0.20619,0.17114 0.67311,0.80535 0.59291,0.80535 -0.0296,0 -0.21531,-0.18402 -0.41279,-0.40894 z m 0.83002,0.033 c -0.21647,-0.27991 -0.27609,-0.43384 -0.168,-0.43384 0.0601,0 0.19449,0.13022 0.29872,0.28923 0.19049,0.29073 0.0784,0.41486 -0.13066,0.14465 z m 13.83993,-2.49182 c -0.61037,-0.42703 -1.31319,-0.94948 -1.56181,-1.16099 l -0.45206,-0.38457 0.57845,0.37353 c 0.71359,0.46079 2.60303,1.84808 2.60303,1.91121 0,0.0764 -0.0183,0.065 -1.16761,-0.73918 z m -0.93102,0.13464 c -1.2402,-0.90179 -1.21804,-0.98329 0.038,-0.1395 0.58613,0.39375 0.89827,0.67456 0.7498,0.67456 -0.0286,0 -0.38306,-0.24075 -0.78775,-0.53501 z m 0.73773,-1.26127 c -0.33322,-0.22438 -0.60583,-0.43597 -0.60583,-0.47016 0,-0.10296 0.91675,0.44533 1.11972,0.66962 0.27194,0.30049 0.16934,0.26066 -0.51389,-0.19946 z m -18.8222,-1.33219 c -0.17675,-0.57619 -0.29751,-1.07148 -0.26834,-1.10064 0.0292,-0.0292 0.19763,0.41841 0.37438,0.9946 0.17676,0.5762 0.29751,1.07149 0.26834,1.10066 -0.0292,0.0292 -0.19764,-0.41842 -0.37438,-0.99462 z m 11.67987,-1.50366 c -1.01806,-0.24569 -2.00722,-0.50027 -2.19811,-0.56575 -0.30618,-0.10503 -0.28573,-0.11107 0.17354,-0.0511 0.54362,0.0708 4.18693,0.95584 4.27089,1.03736 0.11873,0.11519 -0.52753,-0.006 -2.24632,-0.42047 z m -9.18468,-1.49267 c -0.0147,-1.23417 0.20062,-3.67736 0.34666,-3.94024 0.20632,-0.37145 0.0197,3.23228 -0.23442,4.5257 -0.0862,0.43896 -0.1012,0.36058 -0.11224,-0.58546 z m -1.04058,-3.27502 c -0.007,-0.68373 0.0323,-1.12798 0.10238,-1.12798 0.13802,0 0.14229,1.13758 0.007,1.7932 -0.0775,0.37487 -0.0983,0.24854 -0.109,-0.66522 z m 8.15862,0.41806 c -0.10959,-0.22978 -0.17165,-0.44537 -0.13787,-0.47907 0.0337,-0.0337 0.14303,0.13448 0.24311,0.3739 0.2362,0.56531 0.15362,0.64788 -0.10518,0.10517 z m -1.4619,-0.91871 c -0.73174,-0.0854 -2.03325,-0.20842 -2.89226,-0.27315 -1.47672,-0.11136 -3.07067,-0.44962 -4.6276,-0.98228 -0.48046,-0.16439 -0.39661,-0.16273 0.46294,0.009 l 0.32027,0.0641 0.11195,-1.19763 0.11195,-1.19761 0.0171,1.22417 0.0171,1.22417 0.54935,0.12565 c 0.30215,0.0691 0.57517,0.0999 0.60673,0.0684 0.0315,-0.0315 0.0891,-0.35267 0.12771,-0.71359 l 0.0704,-0.65622 0.0169,0.71068 c 0.0133,0.55975 0.06,0.72735 0.21946,0.78916 0.11136,0.0432 0.80115,0.12992 1.53289,0.19265 0.73174,0.0628 1.9812,0.20844 2.77657,0.32361 0.79536,0.11519 1.46291,0.19515 1.48341,0.17771 0.0205,-0.0174 -0.0651,-0.23186 -0.19027,-0.47647 -0.22593,-0.44161 -0.23436,-0.44566 -1.19418,-0.57371 l -0.96663,-0.12904 0.90439,-0.0156 c 1.03184,-0.0178 1.00225,0.0558 0.46672,-1.16141 -0.42328,-0.96205 -0.25463,-0.81181 0.24956,0.22232 0.47322,0.9706 0.48511,0.98021 1.36474,1.10448 0.30577,0.0432 0.77431,0.15112 1.04122,0.23982 0.31718,0.10547 0.36505,0.14082 0.13817,0.10208 -0.73829,-0.12579 -1.90889,-0.20572 -1.90889,-0.13021 0,0.0436 0.10341,0.28205 0.22994,0.52993 0.18363,0.35995 0.30595,0.46015 0.60737,0.49749 0.37128,0.046 0.37178,0.0468 0.0303,0.0517 -0.19089,0.003 -0.94577,-0.065 -1.6775,-0.15045 z m -10.86574,-0.46345 c 0.006,-0.13478 0.033,-0.16218 0.0698,-0.0698 0.0334,0.0835 0.0293,0.18331 -0.009,0.22175 -0.0385,0.0384 -0.0659,-0.0299 -0.0607,-0.15185 z m 14.19906,-0.24291 c 0.0835,-0.0334 0.18329,-0.0293 0.22174,0.009 0.0384,0.0384 -0.0299,0.0658 -0.15184,0.0608 -0.13478,-0.006 -0.1622,-0.033 -0.0698,-0.0698 z m -14.41957,-1.33956 c -0.16334,-1.41217 -0.17277,-1.973 -0.0317,-1.8858 0.10576,0.0654 0.3142,2.92474 0.22008,3.01885 -0.0283,0.0283 -0.11298,-0.48162 -0.1884,-1.13305 z m 6.01415,-1.01092 c 0,-0.15907 0.0262,-0.22415 0.0583,-0.14465 0.0321,0.0795 0.0321,0.20968 0,0.28923 -0.0321,0.0795 -0.0583,0.0147 -0.0583,-0.14466 z m -6.83413,-0.66522 c 0.20565,-0.36587 0.4177,-0.72258 0.4712,-0.79269 0.0535,-0.0701 0.0753,-0.85103 0.0482,-1.73535 l -0.049,-1.60788 0.12271,1.30151 c 0.0675,0.71583 0.16586,1.30152 0.21862,1.30152 0.0527,0 0.15664,-0.11711 0.23087,-0.2603 0.20945,-0.40401 1.97573,-3.09471 2.03147,-3.09471 0.0956,0 -1.40169,2.54209 -2.53825,4.30946 -0.8714,1.355 -1.12785,1.63193 -0.5357,0.57844 z m -6.10439,-5.11928 c 0,-0.4136 0.0211,-0.58279 0.0467,-0.37601 0.0256,0.20682 0.0256,0.5452 0,0.752 -0.0256,0.2068 -0.0467,0.0376 -0.0467,-0.37599 z m -0.19967,-2.28153 c -0.0433,-0.74949 -0.1093,-1.61 -0.14657,-1.91224 -0.0418,-0.33909 -0.0227,-0.54953 0.0496,-0.54953 0.11755,0 0.34172,3.6584 0.231,3.76911 -0.0305,0.0305 -0.0907,-0.55786 -0.13419,-1.30734 z m 12.36794,-0.49504 c -0.18289,-0.19089 -0.28051,-0.34706 -0.21693,-0.34706 0.0635,0 0.23104,0.15617 0.37217,0.34706 0.14112,0.19089 0.23875,0.34708 0.21694,0.34708 -0.0218,0 -0.1893,-0.15619 -0.37218,-0.34708 z m -0.31093,-0.77316 c 0.0835,-0.0334 0.18331,-0.0293 0.22175,0.009 0.0384,0.0384 -0.0299,0.0658 -0.15184,0.0608 -0.13478,-0.006 -0.16219,-0.033 -0.0698,-0.0698 z m -0.72318,-0.16385 c 0.0433,-0.0701 -0.20301,-0.42028 -0.5495,-0.78091 -0.34545,-0.35955 -0.70039,-0.75784 -0.78876,-0.88511 -0.23981,-0.34536 1.0057,0.8571 1.40801,1.35937 0.33043,0.41251 0.33532,0.43384 0.0996,0.43384 -0.15077,0 -0.21713,-0.0498 -0.16933,-0.12713 z m -0.67232,-0.0651 c 0.0796,-0.0321 0.20969,-0.0321 0.28923,0 0.0795,0.0321 0.0147,0.0583 -0.14465,0.0583 -0.15907,0 -0.22415,-0.0262 -0.14465,-0.0583 z m -1.18583,-0.15476 c -0.30958,-0.0788 -0.31583,-0.0884 -0.0579,-0.0884 0.15907,0 0.44542,0.0398 0.63631,0.0884 0.30958,0.0788 0.31583,0.0884 0.0579,0.0884 -0.15908,0 -0.44542,-0.0398 -0.63631,-0.0884 z m -1.21474,-0.24328 c -0.22271,-0.0572 -1.05568,-0.13214 -1.85104,-0.16683 -0.79537,-0.0346 -2.14894,-0.19187 -3.00795,-0.34949 -0.85899,-0.15761 -2.06947,-0.31634 -2.68994,-0.35274 -0.71366,-0.0418 -1.10164,-0.10901 -1.05604,-0.18282 0.0396,-0.0641 0.0627,-1.08619 0.0513,-2.2712 -0.0118,-1.185 0.003,-2.12982 0.0315,-2.09958 0.0289,0.0302 0.0885,1.01809 0.13257,2.19524 0.044,1.17714 0.0949,2.15524 0.11298,2.17355 0.0181,0.0183 0.5556,0.0567 1.19451,0.0854 0.63889,0.0287 1.62174,0.16109 2.1841,0.29424 0.608,0.14391 1.7493,0.28339 2.81564,0.34399 0.98627,0.056 2.0535,0.17732 2.37165,0.26951 0.62384,0.18072 0.37892,0.23213 -0.28923,0.0607 z m -9.34198,-1.10906 c 0.11136,-0.029 0.29357,-0.029 0.40492,0 0.11136,0.0292 0.0202,0.0529 -0.20245,0.0529 -0.22271,0 -0.31382,-0.0239 -0.20247,-0.0529 z m -0.63629,-0.11254 c 0.0795,-0.0321 0.20969,-0.0321 0.28923,0 0.0795,0.0321 0.0147,0.0583 -0.14465,0.0583 -0.15907,0 -0.22415,-0.0262 -0.14465,-0.0583 z m -0.57123,-0.11814 c 0.0835,-0.0334 0.18331,-0.0293 0.22175,0.009 0.0384,0.0385 -0.0299,0.0659 -0.15185,0.0607 -0.13478,-0.006 -0.16218,-0.033 -0.0698,-0.0698 z m -1.04844,-0.22896 c 0.0796,-0.0321 0.20969,-0.0321 0.28923,0 0.0796,0.0321 0.0147,0.0583 -0.14465,0.0583 -0.15907,0 -0.22415,-0.0262 -0.14465,-0.0583 z m -5.22299,-2.03474 c 0.22879,-0.39635 1.34491,-1.94051 1.44919,-2.00495 0.15539,-0.096 -0.38996,0.76796 -0.97341,1.5422 -0.42286,0.56112 -0.67299,0.8044 -0.47578,0.46275 z m 15.49049,-0.25298 c 0.18519,-0.0826 5.13251,-0.55244 5.28454,-0.50177 0.0759,0.0253 -0.69176,0.13346 -1.70569,0.24035 -2.0469,0.21586 -3.75647,0.34073 -3.57885,0.26142 z m -2.45841,-0.60768 c 0.11136,-0.0292 0.29356,-0.0292 0.40491,0 0.11136,0.029 0.0202,0.0529 -0.20246,0.0529 -0.2227,0 -0.31379,-0.0239 -0.20245,-0.0529 z m 0.67485,-0.0807 c 0.0865,-0.0804 5.30841,-0.78271 5.51557,-0.74182 0.11078,0.0218 -0.99594,0.20888 -2.45942,0.41556 -2.54431,0.35931 -3.16269,0.42533 -3.05615,0.32626 z m 5.91948,-0.84475 c 0.11136,-0.029 0.29357,-0.029 0.40492,0 0.11136,0.0292 0.0202,0.0529 -0.20245,0.0529 -0.22271,0 -0.31382,-0.0239 -0.20247,-0.0529 z m -4.07251,-1.21018 c -0.007,-0.0909 1.4734,-3.32204 1.82035,-3.97398 0.45292,-0.851028 0.26323,-0.31735 -0.4191,1.17913 -0.71835,1.57552 -1.39204,2.9192 -1.40125,2.79485 z m -0.81028,-0.34918 c -0.006,-0.098 1.14632,-2.6616 1.47394,-3.27773 0.43235,-0.813078 0.27496,-0.34961 -0.3602,1.06066 -0.64554,1.43333 -1.10508,2.34809 -1.11374,2.21707 z m -1.03707,-0.1202 c -0.0133,-0.11578 1.15591,-2.67056 1.28601,-2.81048 0.0642,-0.0691 0.0633,8.8e-4 -0.001,0.17353 -0.18515,0.48757 -1.27392,2.72399 -1.28376,2.63695 z m 3.45163,-1.0462 c 0.62079,-1.43076 0.82857,-1.85177 0.88574,-1.7946 0.0689,0.0689 -0.93723,2.28628 -1.03745,2.28628 -0.0339,0 0.0343,-0.22127 0.15171,-0.49168 z m 11.72856,37.40587 c 0.18795,-0.0714 0.30533,-0.23081 0.35576,-0.48299 0.10591,-0.5294 -0.22051,-0.84496 -1.02465,-0.99072 -0.82627,-0.14977 -1.27638,0.023 -1.38839,0.53303 -0.0675,0.30694 -0.0306,0.40058 0.24257,0.61777 0.49199,0.39114 1.27079,0.5297 1.81471,0.32291 z m -1.27771,-0.24404 c -0.14318,-0.0576 -0.2603,-0.13537 -0.2603,-0.17302 0,-0.0376 0.0547,-0.0346 0.12153,0.007 0.0669,0.0414 0.36616,0.11637 0.66522,0.16675 0.47998,0.0809 0.49625,0.0924 0.13876,0.098 -0.22271,0.003 -0.52206,-0.0408 -0.66522,-0.0984 z m 0.78091,-0.38892 c 0,-0.025 0.0781,-0.0754 0.17353,-0.1121 0.0954,-0.0367 0.17353,-0.0162 0.17353,0.0455 0,0.0616 -0.0781,0.11209 -0.17353,0.11209 -0.0955,0 -0.17353,-0.0205 -0.17353,-0.0455 z m -1.27259,-0.11564 c 0,-0.025 0.0807,-0.0764 0.17955,-0.1143 0.10296,-0.0395 0.14938,-0.0202 0.10886,0.0455 -0.0679,0.10989 -0.28842,0.16261 -0.28842,0.0689 z m 8.41645,-0.14317 c 0.14318,-0.0383 0.2603,-0.1367 0.2603,-0.21847 0,-0.0817 -0.78396,-1.48138 -1.74215,-3.11018 -0.98359,-1.67197 -1.70622,-3.01961 -1.65963,-3.09499 0.0511,-0.0828 0.0317,-0.10208 -0.051,-0.051 -0.0735,0.0454 -0.13478,0.0405 -0.13611,-0.0118 -0.001,-0.0515 -0.0949,-0.21353 -0.20765,-0.36011 l -0.20507,-0.26653 -3.33286,0.46954 c -1.83306,0.25826 -3.37953,0.4984 -3.43658,0.53365 -0.057,0.0352 -0.1037,0.1174 -0.1037,0.18238 0,0.12845 1.3558,2.03247 1.51925,2.13349 0.0549,0.034 0.21579,-0.0193 0.35732,-0.11844 0.14156,-0.0991 0.34986,-0.18024 0.46296,-0.18024 0.23144,0 0.27244,-0.23399 0.0756,-0.43091 -0.0823,-0.0825 -0.10194,-0.31794 -0.0533,-0.64238 l 0.0769,-0.51221 1.44445,-0.20191 c 0.79445,-0.11107 1.51139,-0.1762 1.5932,-0.1448 0.23841,0.0915 2.96919,4.74531 2.96918,5.06013 0,0.18607 0.15053,0.41389 0.43383,0.6566 0.34723,0.29743 0.53781,0.37219 0.95445,0.3744 0.28634,0.001 0.63775,-0.0286 0.78091,-0.067 z m -1.40335,-0.25174 c -0.11416,-0.18481 0.19719,-0.2985 0.56486,-0.20623 0.16387,0.0411 0.28896,0.0224 0.28896,-0.0432 0,-0.16137 -0.51082,-0.27285 -0.81211,-0.17722 -0.20177,0.0641 -0.24239,0.038 -0.20923,-0.13419 0.0327,-0.16985 0.1475,-0.21363 0.56017,-0.21363 0.47701,0 0.52192,0.0252 0.55487,0.31036 0.0253,0.21865 -0.0346,0.34807 -0.20245,0.43791 -0.15927,0.0853 -0.23831,0.0878 -0.23831,0.007 0,-0.16686 -0.31751,-0.1506 -0.3741,0.0191 -0.0359,0.10783 -0.0657,0.10753 -0.13272,-8.7e-4 z m -8.22279,-4.80555 c -0.15831,-0.11578 -0.19257,-0.23577 -0.1339,-0.46923 0.072,-0.28706 0.12005,-0.31067 0.56658,-0.2783 0.41783,0.0304 0.4936,0.0762 0.52789,0.31907 0.0343,0.24358 0.0149,0.26285 -0.13758,0.13626 -0.21146,-0.1755 -0.79101,-0.13095 -0.85556,0.0657 -0.032,0.0975 0.0726,0.11946 0.35236,0.0739 0.38691,-0.0627 0.66889,0.1009 0.42914,0.24902 -0.0647,0.0399 -0.11755,0.0175 -0.11755,-0.0499 0,-0.0673 -0.10723,-0.12255 -0.23822,-0.12255 -0.13095,0 -0.20601,0.052 -0.1667,0.11563 0.0975,0.15767 0.0268,0.14524 -0.22633,-0.0398 z m 5.04363,-0.6443 c -0.11829,-0.0731 -0.10916,-0.10959 0.0414,-0.16744 0.34514,-0.13242 0.63654,-0.0804 0.63654,0.11372 0,0.15776 -0.029,0.16357 -0.18236,0.0364 -0.13287,-0.11018 -0.20436,-0.11578 -0.26335,-0.0203 -0.0465,0.0753 -0.14554,0.0912 -0.23227,0.0376 z m 0.677,-0.36169 c -0.0949,-0.0608 -0.32055,-0.0795 -0.50142,-0.0415 -0.2759,0.058 -0.32231,0.0348 -0.28826,-0.1448 0.0547,-0.28839 0.80385,-0.3612 1.02124,-0.0993 0.19065,0.22971 0.0163,0.44458 -0.23156,0.28554 z m -2.2455,4.90028 c -0.61861,-0.53212 -2.12826,-0.6547 -2.46086,-0.19983 -0.24687,0.3376 -0.1893,0.36613 0.62926,0.31198 0.68783,-0.0455 0.85674,-0.0132 1.4172,0.27575 0.60725,0.31246 0.63813,0.31703 0.67656,0.0999 0.0243,-0.13744 -0.0796,-0.33061 -0.26216,-0.48772 z m 3.46729,-0.41267 c -0.16295,-0.27042 -0.75157,-1.25835 -1.30807,-2.19537 -0.9477,-1.59574 -1.18534,-1.9104 -1.18534,-1.56939 0,0.2674 2.45913,4.25646 2.62396,4.25646 0.12329,0 0.09,-0.1258 -0.13051,-0.4917 z m -3.37587,-0.0321 c 0.0825,-0.21499 -0.49967,-0.59851 -1.07288,-0.7068 -0.48566,-0.0918 -0.97962,0.0694 -1.03105,0.33636 -0.0315,0.16398 0.0517,0.20125 0.46165,0.20659 0.27509,0.003 0.68238,0.0754 0.90507,0.15974 0.55201,0.20884 0.6584,0.20945 0.73721,0.004 z m 1.48758,-2.03648 c -0.80293,-1.33151 -1.00714,-1.51007 -1.50739,-1.3181 -0.156,0.0598 -0.12477,0.11548 0.16931,0.30172 0.36712,0.23245 0.66386,0.75554 0.59662,1.05172 -0.0385,0.16925 1.44029,1.51314 1.50072,1.36388 0.0187,-0.0461 -0.323,-0.67577 -0.75926,-1.39922 z m -1.06789,-0.16372 c 0,-0.35431 -0.53943,-0.74674 -1.02648,-0.74674 -0.51726,0 -0.82455,0.0909 -0.82455,0.24376 0,0.0569 0.091,0.10488 0.20245,0.10694 0.11136,10e-4 0.4888,0.12624 0.83876,0.27631 0.78565,0.33676 0.80982,0.34034 0.80982,0.11976 z m -0.75198,-1.36339 c 0.79237,-0.11681 0.93044,-0.17076 0.95965,-0.37453 0.0336,-0.23402 0.0169,-0.23561 -0.98336,-0.0938 -0.55962,0.0793 -1.13463,0.14766 -1.27779,0.15186 -0.18064,0.006 -0.26032,0.0784 -0.26032,0.239 0,0.27282 0.17771,0.28164 1.56182,0.0775 z m 4.47721,-1.14183 c -0.10797,-0.10798 -0.16968,-0.10798 -0.27765,0 -0.10798,0.10797 -0.0772,0.1389 0.13876,0.1389 0.21594,0 0.2468,-0.0309 0.13876,-0.1389 z m -0.39334,-0.11564 c 0.216,-0.216 0.16514,-0.29687 -0.14897,-0.23683 -0.36428,0.0697 -0.54131,-0.28074 -0.24961,-0.49404 0.11431,-0.0837 0.16463,-0.21958 0.12212,-0.33034 -0.0963,-0.25115 -0.24426,-0.23769 -0.39047,0.0355 -0.16856,0.31495 -0.14904,0.60846 0.0604,0.90739 0.20111,0.28712 0.39915,0.32574 0.60659,0.11828 z m -4.57565,-0.50797 c 3.22538,-0.43858 3.32599,-0.46004 3.32609,-0.70966 9e-5,-0.21689 -0.0499,-0.24885 -0.31804,-0.20301 -0.17499,0.0299 -1.64569,0.23791 -3.26825,0.46218 -3.63201,0.50203 -3.4707,0.46643 -3.4707,0.76592 0,0.17415 0.0572,0.22773 0.20246,0.18976 0.11136,-0.0292 1.69915,-0.25644 3.52844,-0.50519 z m 3.87363,-0.74622 c 0.11121,-0.14701 0.0903,-0.18046 -0.11946,-0.19067 -0.13994,-0.007 -0.19225,0.0118 -0.11622,0.0411 0.076,0.0295 0.10679,0.14126 0.0684,0.24851 -0.0732,0.20442 -0.0532,0.1926 0.16746,-0.099 z m -45.20381,-25.78175 c 0,-0.0569 -0.07,-0.13021 -0.15545,-0.16296 -0.0854,-0.0329 -0.33149,-0.28566 -0.54667,-0.56191 l -0.39125,-0.50225 0.48193,0.42728 c 0.45508,0.40351 1.07241,0.78745 1.26607,0.78745 0.0482,0 -0.12123,-0.22124 -0.37665,-0.49168 -0.6991,-0.74024 -0.85459,-1.01636 -0.27216,-0.48322 0.90501,0.8284 1.81462,1.24445 1.00798,0.46105 -0.22549,-0.21899 -0.52838,-0.5704 -0.67309,-0.78091 l -0.26311,-0.38273 0.39504,0.39421 c 0.47951,0.47853 1.2527,1.05192 1.41845,1.05192 0.0666,0 -0.034,-0.16921 -0.2234,-0.37601 -0.7228,-0.78906 -0.79193,-0.9359 -0.22157,-0.47063 0.64496,0.5261 1.09907,0.79032 1.09907,0.63948 0,-0.0548 -0.13523,-0.2258 -0.30055,-0.38005 -0.1653,-0.15426 -0.40801,-0.43665 -0.53937,-0.62754 -0.22785,-0.33111 -0.21803,-0.32791 0.21376,0.0695 0.57952,0.53336 0.97864,0.79832 1.20142,0.7976 0.12123,-3.6e-4 0.0815,-0.0822 -0.12654,-0.2603 -0.1668,-0.14289 -0.45003,-0.46798 -0.62942,-0.72249 l -0.32614,-0.46277 0.57158,0.5371 c 0.51678,0.48559 1.32357,1.00632 1.32357,0.85429 0,-0.0333 -0.21173,-0.27884 -0.47049,-0.54549 -0.25876,-0.26663 -0.57839,-0.64414 -0.7103,-0.83889 -0.13199,-0.19473 0.006,-0.0804 0.30659,0.25407 1.12564,1.25281 2.21156,1.52074 2.99368,0.73862 0.4142,-0.4142 0.37796,-0.52832 -0.1093,-0.34436 -0.19351,0.0731 -0.52886,0.0965 -0.76016,0.053 -0.44628,-0.0837 -1.30891,-0.77159 -1.73236,-1.38138 -0.19275,-0.27758 -0.0953,-0.21861 0.39605,0.23953 0.35846,0.33427 0.78823,0.65965 0.95502,0.72306 1.1223,0.42671 1.94724,-0.36235 2.10107,-2.00968 0.0834,-0.89237 0.0922,-0.88753 -0.96433,-0.53074 -0.50054,0.16904 -0.73731,0.31758 -0.8298,0.52061 -0.0711,0.15624 -0.20866,0.28407 -0.30547,0.28407 -0.28548,0 -0.20108,0.22069 0.11475,0.29996 0.17394,0.0436 0.37146,0.0103 0.49168,-0.0846 0.18181,-0.14259 0.18583,-0.13817 0.0421,0.0449 -0.20893,0.2664 -0.72324,0.25763 -1.07405,-0.0183 -0.74213,-0.58376 -1.36335,-2.537252 -1.13331,-3.56379 0.15025,-0.670418 0.39586,-0.963094 0.79333,-0.945328 0.24065,0.01075 0.2543,0.0247 0.0688,0.07029 -0.26457,0.06503 -0.5206,0.25097 -0.5206,0.378071 0,0.04752 0.17596,0.114941 0.391,0.149838 0.41339,0.0671 1.82165,-0.366038 1.8938,-0.582457 0.0212,-0.06365 -0.22397,-0.403006 -0.54487,-0.754112 -0.61992,-0.678297 -1.30155,-1.039604 -1.7539,-0.929673 -0.51234,0.1245 -1.02601,0.748527 -1.26622,1.538178 -0.0871,0.28604 -0.0884,0.285371 -0.0981,-0.04949 -0.0133,-0.466392 0.40473,-1.288044 0.79875,-1.568612 0.17934,-0.127696 0.48724,-0.232188 0.68422,-0.232188 0.19697,0 0.35812,-0.05335 0.35812,-0.118549 0,-0.204984 -0.61394,-0.366594 -1.18959,-0.313136 -0.61113,0.05675 -1.01453,0.350357 -1.24463,0.905878 -0.0764,0.184603 -0.21346,0.335643 -0.30443,0.335643 -0.20353,0 -0.4652,0.603924 -0.61309,1.415011 -0.10944,0.600101 -0.11033,0.596996 -0.0567,-0.200267 0.0299,-0.445406 0.0878,-0.960734 0.12859,-1.145172 0.0477,-0.215901 0.032,-0.309279 -0.0443,-0.262169 -0.20543,0.12696 -0.53294,0.918441 -0.67811,1.638723 l -0.13994,0.694136 -0.009,-0.520603 c -0.004,-0.286332 0.0368,-0.715831 0.0922,-0.954442 0.057,-0.245467 0.0572,-0.433837 2.4e-4,-0.433837 -0.14795,0 -0.45374,0.640855 -0.57003,1.194663 -0.0953,0.453729 -0.10002,0.439238 -0.0793,-0.240434 0.0118,-0.397798 -0.0196,-0.723176 -0.0706,-0.72306 -0.15688,3.48e-4 -0.44071,0.808846 -0.54446,1.550808 -0.0971,0.694683 -0.0982,0.690043 -0.0778,-0.306947 0.0118,-0.556765 -0.0147,-1.012295 -0.0564,-1.012286 -0.11652,2.3e-5 -0.44203,0.915001 -0.55676,1.565099 -0.0985,0.558248 -0.1009,0.550485 -0.0809,-0.263859 0.0133,-0.516422 -0.0239,-0.824467 -0.095,-0.80114 -0.16234,0.05318 -0.38994,0.752693 -0.40192,1.235266 -0.009,0.344114 -0.0286,0.373088 -0.1333,0.192923 -0.0678,-0.116664 -0.0899,-0.389911 -0.0491,-0.607376 0.10739,-0.572243 -0.12977,-0.496157 -0.30017,0.09631 -0.20166,0.701279 -0.16739,2.22144 0.0683,3.03245 0.40904,1.40703 1.22311,2.67905 2.18905,3.4205 0.60529,0.46459 0.76731,0.53982 0.76731,0.35622 z m 2.10069,-7.300865 c 0,-0.159073 0.0262,-0.224149 0.0583,-0.144607 0.0321,0.07954 0.0321,0.20969 0,0.289226 -0.0321,0.07954 -0.0583,0.01444 -0.0583,-0.144607 z m -0.92412,-0.867674 c -0.001,-0.127255 0.0414,-0.335501 0.096,-0.46276 0.12668,-0.294804 0.12668,0.0093 0,0.404916 -0.0744,0.232505 -0.0932,0.24385 -0.096,0.05785 z m 13.02154,3.919159 c 0.31206,-0.0837 0.48559,-0.75887 0.26374,-1.02619 -0.21801,-0.26267 -0.89767,-0.413628 -1.2138,-0.26958 -0.53779,0.24502 -0.39499,1.17208 0.19808,1.28591 0.42502,0.0816 0.4816,0.0823 0.75198,0.0103 z m -0.56837,-0.23825 c 0.0835,-0.0334 0.18329,-0.0293 0.22173,0.009 0.0385,0.0384 -0.0299,0.0658 -0.15184,0.0607 -0.13478,-0.006 -0.16219,-0.033 -0.0698,-0.0698 z m 0.16784,-2.773379 c 4.91453,-1.568817 8.97478,-2.886155 9.02274,-2.927418 0.048,-0.04126 -0.0171,-0.290953 -0.14465,-0.554871 -0.12757,-0.263918 -0.23184,-0.535419 -0.23184,-0.603334 0,-0.161751 0.12727,-0.197768 -4.6276,1.309145 -2.9548,0.936423 -4.11749,1.259451 -4.14441,1.151425 -0.0515,-0.206841 -0.25181,-0.189693 -0.25181,0.02155 0,0.09444 -0.15467,0.341729 -0.34369,0.549528 -0.31347,0.344611 -0.34398,0.355887 -0.34706,0.128285 -0.003,-0.245921 -0.0222,-0.243523 -1.30491,0.165909 -0.71583,0.22849 -1.41297,0.411717 -1.54918,0.407165 -0.15883,-0.0053 -0.29655,0.09902 -0.38394,0.290821 -0.1009,0.221274 -0.16081,0.259388 -0.23059,0.146493 -0.0753,-0.12179 -0.31308,-0.08121 -1.17788,0.200993 -1.05797,0.345239 -2.87104,0.759925 -2.95509,0.675874 -0.0756,-0.07542 2.29633,-0.965993 3.89611,-1.462809 1.67333,-0.519649 3.31311,-1.228169 3.57164,-1.54323 0.142,-0.172977 0.12359,-0.192745 -0.17353,-0.186352 -0.18278,0.004 -0.70654,0.04471 -1.16393,0.09059 l -0.83161,0.08343 0.60958,-0.697964 c 0.58677,-0.67185 0.65684,-0.713838 1.87282,-1.122243 l 1.26324,-0.42428 1.11888,0.135047 c 0.61539,0.07429 1.15225,0.168664 1.19302,0.209743 0.0408,0.04108 -0.31954,0.292012 -0.80072,0.557631 -0.4812,0.26562 -0.87489,0.537356 -0.87489,0.60386 0,0.129435 0.9557,0.05153 1.7932,-0.146168 1.2709,-0.30001 5.53067,-1.687566 5.5814,-1.818057 0.11446,-0.29422 -0.0909,-0.275314 -1.38114,0.127182 -1.32962,0.414794 -2.85538,0.861477 -3.27474,0.958713 -0.12727,0.02951 0.10223,-0.104511 0.50986,-0.297819 0.40767,-0.193309 0.71825,-0.374457 0.69014,-0.402552 -0.0281,-0.0281 -1.06819,-0.180453 -2.31134,-0.338569 l -2.26027,-0.287486 -1.33344,0.426448 c -0.73339,0.234547 -1.42626,0.503539 -1.5397,0.597759 -0.31941,0.265305 -2.2906,2.553834 -2.24177,2.602672 0.0239,0.02385 0.38125,-0.02906 0.79424,-0.117577 0.41298,-0.08851 0.80293,-0.160331 0.86657,-0.159593 0.0636,6.99e-4 -0.97759,0.388715 -2.3138,0.862172 -1.33623,0.473458 -2.88503,1.024047 -3.44179,1.223535 l -1.01227,0.362688 v 0.571873 c 0,0.74541 0.38347,1.4822 0.77143,1.4822 0.0865,0 4.17814,-1.283606 9.09267,-2.852422 z m 3.70274,-1.971067 c 0.11254,-0.02933 0.26876,-0.0274 0.34708,0.0043 0.0784,0.0317 -0.0133,0.0557 -0.20466,0.05332 -0.19089,-0.0024 -0.25497,-0.02828 -0.14245,-0.05761 z m 1.1041,-0.345927 c 0.0835,-0.03342 0.18328,-0.02931 0.22173,0.0091 0.0385,0.03845 -0.0299,0.06578 -0.15184,0.06076 -0.13478,-0.0056 -0.16219,-0.03297 -0.0698,-0.0699 z m -3.48925,4.619783 c 0.12373,-0.49283 -0.0909,-0.874643 -0.65404,-1.163518 -0.889,-0.456064 -1.85092,-0.135518 -1.85092,0.616738 0,0.22124 0.052,0.40226 0.11564,0.40226 0.0636,0 0.11563,-0.0769 0.11563,-0.17087 0,-0.094 0.12845,-0.25503 0.28543,-0.35789 0.63061,-0.413199 1.79803,0.16364 1.63618,0.80848 -0.058,0.2312 -0.0365,0.2784 0.10252,0.22504 0.0968,-0.0371 0.20902,-0.19924 0.24943,-0.36024 z m 1.35857,-0.12948 c 0.57336,-0.32291 0.78872,-0.737135 0.94985,-1.826939 0.0825,-0.558028 0.13729,-1.027344 0.12167,-1.042926 -0.0156,-0.01558 -0.14317,0.0018 -0.28357,0.03842 -0.181,0.04733 -0.25576,0.155374 -0.25703,0.371404 -0.003,0.496817 -0.18526,0.670971 -0.26823,0.25614 -0.0728,-0.363563 -0.31352,-0.459619 -0.6375,-0.25429 -0.12845,0.08144 -0.12344,0.160512 0.0289,0.455243 0.29933,0.578841 0.23747,0.993498 -0.21139,1.416878 -0.38305,0.3613 -0.57073,0.72274 -0.44209,0.85138 0.0909,0.091 0.61274,-0.0476 0.99936,-0.26531 z m 2.44159,-0.75761 c 0.57267,-0.170679 1.11807,-0.336631 1.212,-0.368787 0.12241,-0.04183 0.065,-0.125354 -0.20246,-0.294782 -0.29661,-0.187811 -0.37324,-0.314211 -0.37324,-0.615716 0,-0.208661 0.07,-0.437512 0.15563,-0.508556 0.24956,-0.207106 0.83654,-0.280616 1.10282,-0.138111 0.30331,0.162327 0.33317,0.760162 0.0535,1.069299 -0.261,0.288404 -0.1543,0.353703 0.31795,0.194587 0.86089,-0.290039 0.87124,-0.443414 0.11019,-1.631224 -0.5235,-0.817057 -0.59734,-0.886542 -0.84296,-0.793166 -0.14805,0.05629 -0.63506,0.211309 -1.08224,0.344488 l -0.81309,0.242142 0.007,0.831351 0.007,0.831354 -0.36143,0.09516 c -0.26727,0.07041 -0.37819,0.178207 -0.42574,0.413802 -0.0354,0.175246 -0.10296,0.418752 -0.15032,0.541159 -0.0641,0.16575 -0.044,0.20655 0.0787,0.1599 0.0906,-0.0345 0.63324,-0.20228 1.20591,-0.372957 z m -6.54728,-0.08602 c 0.0701,-0.201215 0.11327,-0.380129 0.0958,-0.397599 -0.0602,-0.06025 -1.35713,0.358682 -1.35735,0.438461 -1.2e-4,0.06319 0.57558,0.233258 1.0586,0.312578 0.0415,0.007 0.13287,-0.152239 0.20298,-0.35344 z m 3.1772,-0.125796 c 0.12756,-0.476229 0.0753,-0.858577 -0.14465,-1.057693 -0.19642,-0.177752 -0.23508,-0.179502 -0.39666,-0.01793 -0.0984,0.09846 -0.27385,0.180677 -0.38975,0.182701 -0.20132,0.0035 -0.20155,0.01061 -0.006,0.159676 0.17967,0.136255 0.13581,0.149998 -0.34706,0.108415 l -0.55269,-0.04758 0.59134,0.237113 c 0.32525,0.130363 0.68472,0.340284 0.79884,0.46639 0.26741,0.295489 0.36001,0.289037 0.44578,-0.03108 z m 5.04759,-0.549527 c 0,-0.06363 -0.10105,-0.115633 -0.22456,-0.115633 -0.12359,0 -0.25672,0.052 -0.29605,0.115633 -0.0405,0.06555 0.0567,0.115632 0.22455,0.115632 0.16282,0 0.29606,-0.052 0.29606,-0.115632 z m -0.51943,-0.280077 c 0.33137,-0.171924 0.63511,-0.131659 0.63511,0.08421 0,0.09015 0.037,0.08941 0.12874,-0.0029 0.20979,-0.209777 0.004,-0.38028 -0.45951,-0.38028 -0.4057,0 -0.71044,0.158794 -0.71044,0.370204 0,0.125355 0.0393,0.118432 0.40608,-0.07182 z m 6.22872,-1.137132 c -0.19359,-0.206796 -0.50005,-0.584235 -0.68104,-0.838753 l -0.32908,-0.46276 0.5716,0.531699 c 1.02167,0.950401 1.83929,1.403501 1.07595,0.596279 -0.22563,-0.238611 -0.53073,-0.61605 -0.67799,-0.838753 -0.25583,-0.38689 -0.24247,-0.381206 0.3,0.127653 0.94018,0.881926 1.72408,1.297617 1.01372,0.537559 -0.19327,-0.206797 -0.47198,-0.558205 -0.61937,-0.780909 -0.25596,-0.386768 -0.24251,-0.381047 0.29979,0.127652 0.94018,0.881926 1.72408,1.297619 1.01372,0.537559 -0.19328,-0.206796 -0.47209,-0.558204 -0.6196,-0.780908 l -0.26821,-0.404915 0.51015,0.474584 c 0.96517,0.897894 1.53463,1.154704 0.89515,0.403692 -0.21175,-0.248687 -0.48345,-0.626126 -0.60378,-0.838753 -0.19453,-0.343731 -0.16936,-0.330076 0.22695,0.123175 0.4166,0.476448 1.35523,1.167744 1.58555,1.167744 0.0563,0 -0.14916,-0.282559 -0.45649,-0.627905 -0.30734,-0.345348 -0.65358,-0.800877 -0.76945,-1.012289 l -0.21068,-0.384383 0.26658,0.347071 c 0.64236,0.836305 1.30813,1.447733 1.76742,1.623134 0.43908,0.167689 0.53614,0.169606 0.89957,0.01775 0.38509,-0.160903 1.11397,-0.945509 0.99183,-1.067657 -0.0312,-0.03121 -0.20768,0.02193 -0.39214,0.118122 -0.18443,0.09619 -0.43606,0.175212 -0.55913,0.175604 -0.41676,0.0013 -1.2228,-0.481459 -1.6105,-0.964622 -0.5303,-0.660888 -0.6372,-0.91933 -0.16932,-0.409411 1.7056,1.858891 3.10265,1.104459 3.10265,-1.675488 0,-1.901106 -0.83932,-4.34562 -1.92927,-5.618982 -0.75306,-0.879777 -1.60237,-1.077728 -2.14194,-0.499223 -0.4272,0.458015 -0.56497,0.773028 -0.74201,1.69649 l -0.15716,0.819769 0.0645,-0.809831 c 0.0753,-0.944074 0.47842,-1.936443 0.87464,-2.152923 0.14919,-0.08152 0.47948,-0.178377 0.73401,-0.215252 l 0.46275,-0.06705 -0.32471,-0.217207 c -0.17861,-0.119462 -0.57142,-0.240909 -0.87294,-0.269882 -0.46764,-0.04493 -0.60179,-0.0077 -0.91276,0.254069 -0.20049,0.168707 -0.4712,0.577777 -0.60157,0.909043 -0.21481,0.545883 -0.23044,0.561663 -0.16684,0.168461 0.0386,-0.238611 0.0355,-0.433837 -0.007,-0.433837 -0.16547,0 -0.66115,1.301653 -0.75836,1.991434 l -0.10252,0.727282 0.0358,-0.983366 c 0.0197,-0.540851 0.0744,-1.074471 0.12138,-1.185823 0.048,-0.113614 0.0357,-0.202457 -0.0283,-0.202457 -0.19415,0 -0.62302,1.156893 -0.72541,1.956835 -0.0894,0.697922 -0.0947,0.662372 -0.0641,-0.423479 0.0271,-0.960523 0.004,-1.16175 -0.11652,-1.060878 -0.19669,0.16324 -0.40769,0.816467 -0.51974,1.609066 -0.0765,0.541016 -0.0859,0.476349 -0.062,-0.428512 0.0227,-0.864743 -3.5e-4,-1.042097 -0.1227,-0.940581 -0.18425,0.152903 -0.49855,1.175707 -0.49855,1.622349 0,0.179339 -0.052,0.326072 -0.11563,0.326072 -0.13478,0 -0.13876,-0.412168 -0.0118,-1.185823 0.0498,-0.302242 0.0485,-0.549529 -0.003,-0.549529 -0.17174,0 -0.37976,0.512862 -0.58659,1.446126 l -0.20509,0.92552 0.0485,-1.070133 c 0.0267,-0.588572 0.0228,-1.070133 -0.009,-1.070133 -0.15211,0 -0.50522,1.079869 -0.58753,1.796712 l -0.0927,0.806316 -0.0607,-0.867676 c -0.0588,-0.840983 -0.0656,-0.856999 -0.21635,-0.520606 -0.27415,0.611393 -0.19577,2.497827 0.15288,3.679809 0.49282,1.670687 1.12407,2.759693 2.23136,3.849423 0.78606,0.773603 1.02244,0.818154 0.4106,0.07739 -0.69783,-0.844899 -0.70431,-0.956077 -0.0178,-0.306055 0.66495,0.62962 1.1252,0.971269 1.30841,0.971269 0.062,0 -0.0458,-0.169196 -0.23933,-0.375988 z m 4.0706,-3.485013 c -0.34832,-0.348325 -0.79218,-1.221619 -1.0324,-2.031264 -0.21148,-0.712782 -0.24828,-2.404359 -0.058,-2.668796 0.10414,-0.14474 0.11357,-0.138686 0.0568,0.03649 -0.0554,0.17081 -0.023,0.195711 0.1735,0.133368 0.17246,-0.05474 0.33302,0.01105 0.56163,0.230053 0.24055,0.230455 0.3919,0.288696 0.6088,0.234255 0.19548,-0.04905 0.35378,-0.0074 0.49029,0.129155 0.19167,0.191674 0.18611,0.209712 -0.11284,0.366348 -0.28115,0.147314 -0.30795,0.213022 -0.25322,0.621004 0.0835,0.622604 0.36693,1.025894 0.72098,1.025894 0.41883,0 0.38143,0.41954 -0.0598,0.670598 -0.19049,0.1084 -0.34666,0.291605 -0.34708,0.40714 -0.001,0.41826 -0.23237,0.682629 -0.53083,0.60772 -0.34581,-0.08679 -0.35163,-0.0261 -0.0265,0.276766 0.13921,0.129745 0.21499,0.235888 0.16828,0.235888 -0.0467,0 -0.20849,-0.123572 -0.35953,-0.274613 z m 0.78418,-1.21266 c 0.19377,-0.07641 0.18756,-0.106736 -0.0813,-0.396783 -0.16009,-0.17273 -0.27261,-0.314055 -0.25006,-0.314055 0.0225,0 -0.032,-0.242548 -0.12123,-0.538993 -0.0893,-0.296445 -0.16221,-0.73896 -0.16221,-0.983366 0,-0.348705 -0.0443,-0.444373 -0.20563,-0.444373 -0.52393,0 -1.0204,0.789912 -0.51743,0.823251 0.19282,0.01282 0.19282,0.01594 0,0.06633 -0.23788,0.06216 -0.25199,0.248694 -0.0658,0.870209 0.13199,0.440407 0.15097,0.453952 0.54953,0.3913 0.36164,-0.05684 0.37751,-0.05011 0.12786,0.05431 -0.38811,0.162348 -0.4061,0.192198 -0.23792,0.39483 0.15237,0.183603 0.60295,0.219746 0.96411,0.07733 z m -0.98349,-1.946768 c 0.0835,-0.03342 0.1833,-0.02931 0.22173,0.0091 0.0385,0.03845 -0.0299,0.06578 -0.15184,0.06076 -0.13478,-0.0056 -0.16218,-0.03297 -0.0698,-0.0699 z m 1.34623,0.60335 c -0.20035,-0.479505 -0.21489,-0.828537 -0.039,-0.937231 0.15398,-0.09517 0.29466,0.10323 0.44247,0.623998 0.20649,0.727528 -0.12344,0.983609 -0.40346,0.313233 z m -4.54559,-3.416573 c 0,-0.159073 0.0262,-0.22415 0.0583,-0.144607 0.0321,0.07954 0.0321,0.209689 0,0.289225 -0.0321,0.07954 -0.0583,0.01444 -0.0583,-0.144607 z m -17.49389,6.065995 c -0.17326,-0.208757 -0.84523,-0.227255 -0.76968,-0.0212 0.0292,0.07954 0.11932,0.129008 0.20044,0.109932 0.30461,-0.07165 0.47618,0.07741 0.35333,0.306973 -0.0641,0.119846 -0.0819,0.252654 -0.0393,0.295148 0.0426,0.0425 0.14828,-0.05826 0.23505,-0.223905 0.12271,-0.234168 0.12713,-0.338045 0.0202,-0.466964 z m 1.19558,0.131615 c 0.23558,-0.28183 0.5444,-0.529115 0.68628,-0.549527 0.23185,-0.03336 0.25442,-0.09358 0.22316,-0.595685 -0.0333,-0.534035 -0.0241,-0.552913 0.2059,-0.429765 0.13655,0.07311 0.24068,0.243786 0.24068,0.394678 0,0.394821 0.0794,0.418369 0.69972,0.207518 0.63009,-0.214176 0.62425,-0.203158 0.5207,-0.983793 -0.051,-0.384644 -0.0274,-0.617046 0.0757,-0.741876 0.11873,-0.14393 0.11991,-0.191906 0.006,-0.230443 -0.0795,-0.02676 -0.14465,-0.151965 -0.14465,-0.278209 0,-0.182606 -0.0532,-0.214564 -0.2603,-0.156315 -0.20943,0.05891 -0.22639,0.04815 -0.0868,-0.05508 0.14289,-0.105661 0.12683,-0.122306 -0.0913,-0.09435 -0.14569,0.01868 -0.26559,0.08601 -0.26648,0.149642 -8.6e-4,0.06363 -0.12888,0.182428 -0.28464,0.263997 -0.15569,0.08156 -0.28306,0.224735 -0.28306,0.318149 0,0.09342 -0.0781,0.16984 -0.17354,0.16984 -0.0954,0 -0.17272,0.09111 -0.17175,0.202457 0.001,0.166268 0.0205,0.172767 0.10694,0.03637 0.0795,-0.125679 0.14333,-0.134325 0.26241,-0.03554 0.1009,0.08371 0.21818,0.09206 0.32696,0.02326 0.13788,-0.08723 0.12639,-0.109269 -0.0617,-0.117872 -0.29727,-0.01355 0.47844,-0.322435 0.80983,-0.322435 0.14553,0 0.0812,0.05785 -0.17354,0.155932 l -0.4049,0.155932 0.34707,0.01794 c 0.38346,0.01981 0.34305,0.04446 -0.37599,0.229275 -0.38443,0.09881 -0.49461,0.182191 -0.50512,0.382225 -0.0103,0.195785 -0.0258,0.208317 -0.0663,0.05338 -0.0292,-0.111346 -0.12712,-0.202457 -0.21795,-0.202457 -0.17838,0 -0.20456,-0.266365 -0.0926,-0.942921 0.0666,-0.402259 0.10281,-0.431579 0.76504,-0.617384 l 0.69523,-0.195067 0.50383,0.494477 c 0.27711,0.271962 0.53041,0.467903 0.5629,0.43542 0.0876,-0.0876 -0.20899,-0.675949 -0.34343,-0.681274 -0.0636,-0.0025 -0.21676,-0.08102 -0.34026,-0.174437 -0.21979,-0.166237 -0.21926,-0.169856 0.0253,-0.169856 0.18036,0 0.54088,0.367567 1.29626,1.321587 0.76818,0.970197 1.13059,1.338073 1.36299,1.383583 0.65532,0.12833 2.58368,0.330207 2.63774,0.276146 0.0613,-0.06122 -2.18223,-3.738854 -2.45384,-4.022526 -0.0913,-0.09545 -0.28113,-0.177646 -0.42166,-0.18267 -0.14053,-0.005 -0.41167,-0.02199 -0.60255,-0.03772 l -0.34706,-0.02859 0.4049,-0.155932 c 0.22271,-0.08576 0.51649,-0.159892 0.65285,-0.164734 0.23198,-0.0082 0.46466,-0.31813 0.3357,-0.447096 -0.032,-0.03196 -0.34554,0.02366 -0.69686,0.123602 -0.43886,0.124839 -0.63876,0.141292 -0.63876,0.05256 0,-0.07104 -0.0651,-0.04833 -0.14465,0.05045 -0.0797,0.09906 -1.51959,0.578277 -3.21041,1.068506 -1.68617,0.48889 -3.20894,0.944936 -3.38392,1.013435 -0.34948,0.1368 -0.45643,0.502531 -0.11563,0.395594 0.11136,-0.03494 1.11352,-0.327133 2.22704,-0.649301 1.11351,-0.322169 2.35542,-0.687538 2.75981,-0.811932 0.88073,-0.270921 0.8999,-0.272026 0.98256,-0.05665 0.0449,0.116973 -0.0499,0.202749 -0.30577,0.27671 -3.28163,0.94854 -5.5812,1.659449 -5.70786,1.764573 -0.25616,0.212598 -0.19228,0.37654 0.47108,1.208963 0.34614,0.434338 0.59841,0.839767 0.56058,0.900953 -0.0379,0.06119 -0.0147,0.07744 0.0529,0.03612 0.0669,-0.04132 0.31988,0.184906 0.56226,0.502731 0.24237,0.317824 0.47102,0.577863 0.5081,0.577863 0.0371,0 0.26017,-0.230587 0.49575,-0.512415 z m -1.39162,-0.953888 c -0.3465,-0.241701 -0.37012,-1.01196 -0.0365,-1.190497 0.54471,-0.291523 1.1645,-0.104305 1.1645,0.351747 0,0.246181 -0.0443,0.314054 -0.17287,0.264725 -0.095,-0.03649 -0.14067,-0.118519 -0.1012,-0.182298 0.0454,-0.07348 -0.029,-0.08457 -0.20311,-0.03027 -0.63605,0.198337 -0.79541,0.289861 -0.79541,0.456843 0,0.226865 0.18652,0.228821 0.27322,0.0028 0.0367,-0.09544 0.16367,-0.173535 0.28232,-0.173535 0.11858,0 0.21574,0.07809 0.21574,0.173535 0,0.09545 -0.0954,0.173535 -0.2121,0.173535 -0.27005,0 -0.27717,0.197411 -0.009,0.267322 0.1395,0.03643 0.14844,0.05519 0.0289,0.06026 -0.0954,0.004 -0.29067,-0.07436 -0.43383,-0.174225 z m 0.83875,-0.153356 c 0.11519,-0.127255 0.23543,-0.23138 0.26725,-0.23138 0.0318,0 -0.0364,0.104113 -0.15156,0.23138 -0.11519,0.127254 -0.23542,0.23138 -0.26724,0.23138 -0.0318,0 0.0364,-0.104114 0.15155,-0.23138 z m 5.10829,-1.599848 c -0.10532,-0.11637 -0.19146,-0.400605 -0.19146,-0.631652 0,-0.387183 0.0349,-0.430542 0.4457,-0.553618 0.56083,-0.168028 0.94258,-9.1e-5 0.94258,0.414648 0,0.251147 -0.0379,0.274705 -0.34282,0.213701 -0.45472,-0.09094 -0.92977,0.03684 -0.92977,0.250086 0,0.09423 0.052,0.171332 0.11563,0.171332 0.0636,0 0.11563,-0.05206 0.11563,-0.115691 0,-0.151847 0.65917,-0.150194 0.75316,0.0019 0.0399,0.06467 0.13419,0.08175 0.20927,0.03796 0.0751,-0.04379 0.0374,0.03345 -0.0838,0.171649 -0.26965,0.307429 -0.77444,0.326805 -1.03427,0.0397 z m 0.73405,-0.01981 c 0,-0.06363 -0.075,-0.115691 -0.1667,-0.115691 -0.0916,0 -0.19889,0.05206 -0.2382,0.115691 -0.0393,0.06364 0.0356,0.115692 0.1667,0.115692 0.13095,0 0.2382,-0.05206 0.2382,-0.115692 z m -1.71476,-2.115476 c -0.0981,-0.118152 0.009,-0.148745 0.51697,-0.148745 0.63685,0 0.63826,8.31e-4 0.25389,0.139938 -0.51031,0.18476 -0.62375,0.186056 -0.77086,0.0088 z m -0.0205,-0.712102 c 0,-0.122114 -0.22203,-0.17341 -0.28806,-0.06657 -0.0399,0.06467 0.009,0.117577 0.10768,0.117577 0.0991,0 0.18035,-0.02295 0.18035,-0.05101 z m -18.68034,-5.843428 c -0.0426,-0.06889 -0.13139,-0.09189 -0.19747,-0.05108 -0.0778,0.04803 -0.0658,0.107663 0.0336,0.169131 0.18565,0.114734 0.27016,0.05388 0.16391,-0.118048 z m 10.23559,-19.130555 c 2.05645,-0.854769 3.95291,-1.189077 6.11979,-1.078787 0.80152,0.0408 1.62649,0.105925 1.83329,0.144725 0.32408,0.06081 0.376,0.03806 0.376,-0.164752 0,-0.203891 -0.10429,-0.248114 -0.78091,-0.331278 -1.16538,-0.143237 -2.96544,-0.08791 -4.10596,0.126179 -1.53785,0.288678 -3.88538,1.152725 -4.59971,1.692997 -0.23578,0.178317 -0.0884,0.128772 1.1575,-0.389088 z m 1.11261,0.05412 c 1.46239,-0.425671 2.17318,-0.524213 3.74576,-0.519305 1.03684,0.0032 1.82673,0.0688 2.3499,0.195061 1.00366,0.242213 1.0285,0.240563 0.98423,-0.0654 -0.0529,-0.365807 -0.64097,-0.473704 -2.63998,-0.484383 -1.20721,-0.0065 -1.95321,0.04966 -2.66088,0.200128 -1.15129,0.244795 -2.66884,0.732938 -2.83441,0.911724 -0.0804,0.08679 -0.0583,0.104909 0.072,0.05936 0.10326,-0.03607 0.54576,-0.169799 0.98338,-0.29718 z m 9.80349,-1.001732 c 0.0406,-0.105704 2.2e-4,-0.173535 -0.10326,-0.173535 -0.0934,0 -0.1699,-0.05206 -0.1699,-0.115692 0,-0.147023 0.0401,-0.145196 0.39856,0.01816 0.22816,0.103951 0.26497,0.168554 0.16481,0.289225 -0.1742,0.209889 -0.37291,0.197455 -0.29015,-0.01816 z"
         id="path6179" /><text
         xml:space="preserve"
         id="text6368"
         style="font-style:normal;font-variant:normal;font-weight:normal;font-stretch:normal;font-size:25.4px;font-family:sans-serif;-inkscape-font-specification:sans-serif;white-space:pre;fill:#ffff00;stroke:#000000;stroke-width:1;stroke-dasharray:none;stroke-opacity:1"
         transform="rotate(42.74736,17.126054,356.38388)"><textPath
           xlink:href="#path6534"
           id="textPath6536"
           style="fill:#ffff00;stroke:#000000;stroke-opacity:1"><tspan
             id="tspan6372"
             style="font-style:normal;font-variant:normal;font-weight:normal;font-stretch:normal;font-family:sans-serif;-inkscape-font-specification:sans-serif;fill:#ffff00;stroke:#000000;stroke-width:1;stroke-dasharray:none;stroke-opacity:1">Ri-Skate</tspan></textPath></text><text
         xml:space="preserve"
         id="text14558"
         style="font-style:normal;font-variant:normal;font-weight:normal;font-stretch:normal;font-size:25.4px;font-family:sans-serif;-inkscape-font-specification:sans-serif;white-space:pre;fill:#ffd700;stroke:#000000;stroke-width:1;stroke-dasharray:none;stroke-opacity:1"
         transform="rotate(-12.590193,-49.067681,-872.83352)"><textPath
           xlink:href="#path10995"
           id="textPath14614"><tspan
             id="tspan14562"
             style="fill:#ffd700;stroke-width:1;stroke-dasharray:none">skateboards</tspan></textPath></text></g></g></svg>
